0
SECTION
2
HEADER
9
$INSUNITS
70
4
9
$ACADVER
1
AC1014
9
$HANDSEED
5
FFFF
0
ENDSEC
0
SECTION
2
TABLES
0
TABLE
2
VPORT
5
8
100
AcDbSymbolTable
0
ENDTAB
0
TABLE
2
LTYPE
5
5
100
AcDbSymbolTable
0
LTYPE
5
14
100
AcDbSymbolTableRecord
100
AcDbLinetypeTableRecord
2
BYBLOCK
70
0
0
LTYPE
5
15
100
AcDbSymbolTableRecord
100
AcDbLinetypeTableRecord
2
BYLAYER
70
0
0
ENDTAB
0
TABLE
2
LAYER
5
2
100
AcDbSymbolTable
70
2
0
LAYER
5
50
100
AcDbSymbolTableRecord
100
AcDbLayerTableRecord
2
0
70
0
6
CONTINUOUS
0
ENDTAB
0
TABLE
2
STYLE
5
3
100
AcDbSymbolTable
70
1
0
STYLE
5
11
100
AcDbSymbolTableRecord
100
AcDbTextStyleTableRecord
2
STANDARD
70
0
0
ENDTAB
0
TABLE
2
VIEW
5
6
100
AcDbSymbolTable
70
0
0
ENDTAB
0
TABLE
2
UCS
5
7
100
AcDbSymbolTable
70
0
0
ENDTAB
0
TABLE
2
APPID
5
9
100
AcDbSymbolTable
70
2
0
APPID
5
12
100
AcDbSymbolTableRecord
100
AcDbRegAppTableRecord
2
ACAD
70
0
0
ENDTAB
0
TABLE
2
DIMSTYLE
5
A
100
AcDbSymbolTable
70
1
0
ENDTAB
0
TABLE
2
BLOCK_RECORD
5
1
100
AcDbSymbolTable
70
1
0
BLOCK_RECORD
5
1F
100
AcDbSymbolTableRecord
100
AcDbBlockTableRecord
2
*MODEL_SPACE
0
BLOCK_RECORD
5
1B
100
AcDbSymbolTableRecord
100
AcDbBlockTableRecord
2
*PAPER_SPACE
0
ENDTAB
0
ENDSEC
0
SECTION
2
BLOCKS
0
BLOCK
5
20
100
AcDbEntity
100
AcDbBlockBegin
2
*MODEL_SPACE
0
ENDBLK
5
21
100
AcDbEntity
100
AcDbBlockEnd
0
BLOCK
5
1C
100
AcDbEntity
100
AcDbBlockBegin
2
*PAPER_SPACE
0
ENDBLK
5
1D
100
AcDbEntity
100
AcDbBlockEnd
0
ENDSEC
0
SECTION
2
ENTITIES
0
LWPOLYLINE
5
100
100
AcDbEntity
8
0
100
AcDbPolyline
90
2
70
1
43
0.0
10
28.535836910425939
20
-8.4478101774089787
42
5.0273394921244057
10
30.449254072251939
20
-8.4478101774089787
42
0.1989123673796849
0
LWPOLYLINE
5
101
100
AcDbEntity
8
0
100
AcDbPolyline
90
8
70
1
43
0.0
10
30.05657649133893
20
8.0167669913130268
10
36.896576491338934
20
8.0167669913130268
42
-0.41421356237324825
10
37.276576491338929
20
7.6367669913130252
10
37.276576491338929
20
-3.3032330086869766
42
-0.41421356237325507
10
36.896576491338926
20
-3.683233008686976
10
30.056576491338927
20
-3.6832330086869729
42
-0.41421356237325591
10
29.676576491338935
20
-3.3032330086869748
10
29.676576491338935
20
7.6367669913130261
42
-0.41421356237325246
0
LWPOLYLINE
5
102
100
AcDbEntity
8
0
100
AcDbPolyline
90
2
70
1
43
0.0
10
8.22012664566852
20
-1.5510830086872398
42
3.6742346141751514
10
11.159514337007955
20
-1.5510830086869825
0
LWPOLYLINE
5
103
100
AcDbEntity
8
0
100
AcDbPolyline
90
4
70
1
43
0.0
10
30.264668089480416
20
13.000203865606633
10
14.964668089480433
20
13.000203865606171
10
14.964668089480057
20
25.500203865606174
10
30.26466808948004
20
25.500203865606636
0
CIRCLE
5
104
100
AcDbEntity
8
0
100
AcDbCircle
10
28.964668089480075
20
24.330203865606595
30
6.6613381477509392e-15
40
0.4499999999999994
210
0
220
0
230
1
0
CIRCLE
5
105
100
AcDbEntity
8
0
100
AcDbCircle
10
26.424668089480079
20
24.330203865606521
30
4.4408920985006262e-15
40
0.4499999999999994
210
0
220
0
230
1
0
CIRCLE
5
106
100
AcDbEntity
8
0
100
AcDbCircle
10
23.884668089480083
20
24.330203865606439
30
4.4408920985006262e-15
40
0.4499999999999994
210
0
220
0
230
1
0
CIRCLE
5
107
100
AcDbEntity
8
0
100
AcDbCircle
10
21.344668089480088
20
24.330203865606368
30
4.4408920985006262e-15
40
0.4499999999999994
210
0
220
0
230
1
0
CIRCLE
5
108
100
AcDbEntity
8
0
100
AcDbCircle
10
18.804668089480089
20
24.330203865606286
30
4.4408920985006262e-15
40
0.4499999999999994
210
0
220
0
230
1
0
CIRCLE
5
109
100
AcDbEntity
8
0
100
AcDbCircle
10
16.264668089480093
20
24.330203865606212
30
4.4408920985006262e-15
40
0.4499999999999994
210
0
220
0
230
1
0
CIRCLE
5
110
100
AcDbEntity
8
0
100
AcDbCircle
10
28.96466808948038
20
14.170203865606592
30
4.4408920985006262e-15
40
0.4499999999999994
210
0
220
0
230
1
0
CIRCLE
5
111
100
AcDbEntity
8
0
100
AcDbCircle
10
26.424668089480384
20
14.170203865606513
30
4.4408920985006262e-15
40
0.4499999999999994
210
0
220
0
230
1
0
CIRCLE
5
112
100
AcDbEntity
8
0
100
AcDbCircle
10
23.884668089480389
20
14.170203865606439
30
4.4408920985006262e-15
40
0.4499999999999994
210
0
220
0
230
1
0
CIRCLE
5
113
100
AcDbEntity
8
0
100
AcDbCircle
10
21.34466808948039
20
14.170203865606364
30
4.4408920985006262e-15
40
0.4499999999999994
210
0
220
0
230
1
0
CIRCLE
5
114
100
AcDbEntity
8
0
100
AcDbCircle
10
18.804668089480394
20
14.170203865606288
30
4.4408920985006262e-15
40
0.4499999999999994
210
0
220
0
230
1
0
CIRCLE
5
115
100
AcDbEntity
8
0
100
AcDbCircle
10
16.264668089480399
20
14.17020386560621
30
2.2204460492503131e-15
40
0.4499999999999994
210
0
220
0
230
1
0
CIRCLE
5
116
100
AcDbEntity
8
0
100
AcDbCircle
10
-35.629872517999701
20
22.950204008654186
30
0
40
0.99999999999999845
210
0
220
-0
230
1
0
CIRCLE
5
117
100
AcDbEntity
8
0
100
AcDbCircle
10
-35.629872517998407
20
2.5502040086541955
30
0
40
0.99999999999999845
210
0
220
-0
230
1
0
ARC
5
118
100
AcDbEntity
8
0
100
AcDbCircle
10
10.699009724276635
20
1.2502117595078581
30
0
40
0.7843924450708929
210
0
220
-0
230
1
100
AcDbArc
50
34.661445613197756
51
90.000000000003638
0
ARC
5
119
100
AcDbEntity
8
0
100
AcDbCircle
10
10.699009724276634
20
1.2502117595078488
30
0
40
0.78439244507090189
210
0
220
0
230
1
100
AcDbArc
50
90.00000000000351
51
325.38559233948484
0
LWPOLYLINE
5
120
100
AcDbEntity
8
0
100
AcDbPolyline
90
3
70
1
43
0.0
10
-31.701693903856643
20
1.3041567650886186
42
0.38114304705248414
10
-32.480975724343544
20
1.999154847121289
42
0.69752778945072091
10
-32.98948765870103
20
0.61752951573194148
42
0.64694538236395593
0
LWPOLYLINE
5
121
100
AcDbEntity
8
0
100
AcDbPolyline
90
3
70
1
43
0.0
10
-29.162069150473183
20
1.3094474620102656
42
0.37996550956448771
10
-29.940976580307069
20
2.0012401034423148
42
0.71515273472232666
10
-30.420846199055802
20
0.59636667003558919
42
0.63359028126653238
0
LWPOLYLINE
5
122
100
AcDbEntity
8
0
100
AcDbPolyline
90
3
70
1
43
0.0
10
-26.622521909967571
20
1.3152578930348588
42
0.37859747592474186
10
-27.400977436270594
20
2.0033253597633429
42
0.73477335396273502
10
-27.848305586794911
20
0.57459679616985415
42
0.61908987983692398
0
LWPOLYLINE
5
123
100
AcDbEntity
8
0
100
AcDbPolyline
90
3
70
1
43
0.0
10
-24.083072493187668
20
1.3216863173871372
42
0.37700302961432425
10
-24.860978292234105
20
2.0054106160843683
42
0.75672299375669683
10
-25.271259600722864
20
0.55248189242492651
42
0.60333746450042192
0
LWPOLYLINE
5
124
100
AcDbEntity
8
0
100
AcDbPolyline
90
3
70
1
43
0.0
10
-21.543748272347337
20
1.3288563162282006
42
0.37513700362971003
10
-22.32097914819763
20
2.007495872405392
42
0.78140394102710264
10
-22.689025559966034
20
0.53041782284377881
42
0.58622277718865257
0
LWPOLYLINE
5
125
100
AcDbEntity
8
0
100
AcDbPolyline
90
3
70
1
43
0.0
10
-19.004586743231524
20
1.336925035249104
42
0.37294195864405205
10
-19.780980004161151
20
2.0095811287264289
42
0.80930250031884754
10
-20.100854728506498
20
0.50898224092461575
42
0.56763694900576123
0
LWPOLYLINE
5
126
100
AcDbEntity
8
0
100
AcDbPolyline
90
3
70
1
43
0.0
10
-16.465640188465184
20
1.3460946063397281
42
0.37034398242346733
10
-17.240980860124676
20
2.0116663850474583
42
0.84100625540271934
10
-17.505960529753651
20
0.48899399133403532
42
0.5474809911366546
0
LWPOLYLINE
5
127
100
AcDbEntity
8
0
100
AcDbPolyline
90
3
70
1
43
0.0
10
-13.926982919656323
20
1.3566280888299191
42
0.36724679863995396
10
-14.700981716088187
20
2.0137516413684824
42
0.87722237427112626
10
-14.903576164158297
20
0.47158152607005649
42
0.52567978068592192
0
LWPOLYLINE
5
128
100
AcDbEntity
8
0
100
AcDbPolyline
90
3
70
1
43
0.0
10
-11.388722748069016
20
1.3688717866777704
42
0.3635234570907685
10
-12.160982572051704
20
2.0158368976895087
42
0.91879391557853063
10
-12.293057604833171
20
0.45825127261759968
42
0.50220435368728511
0
LWPOLYLINE
5
129
100
AcDbEntity
8
0
100
AcDbPolyline
90
3
70
1
43
0.0
10
-8.8510194943804041
20
1.3832863407993234
42
0.35900461546511597
10
-9.6209834280152364
20
2.0179221540105372
42
0.96670734907586486
10
-9.6740509357695572
20
0.45093444476724975
42
0.47710639301881469
0
LWPOLYLINE
5
130
100
AcDbEntity
8
0
100
AcDbPolyline
90
3
70
1
43
0.0
10
-6.3141153246747521
20
1.4004891813781908
42
0.35346220695061975
10
-7.0809842839787587
20
2.0200074103315573
42
1.0220775481113717
10
-7.0467397614751732
20
0.45197038985493404
42
0.45056982172792154
0
LWPOLYLINE
5
131
100
AcDbEntity
8
0
100
AcDbPolyline
90
3
70
1
43
0.0
10
-3.7783849003376369
20
1.4213095417136379
42
0.3465874461912764
10
-4.5409851399422827
20
2.0220926666525876
42
1.0860845916525981
10
-4.4121694215025684
20
0.46395735824323725
42
0.42298454830806598
0
ARC
5
132
100
AcDbEntity
8
0
100
AcDbCircle
10
-2.0009859959057565
20
1.2397854779027226
30
0
40
0.78439244507089856
210
0
220
-0
230
1
100
AcDbArc
50
15.306474114101681
51
90.000000000003652
0
ARC
5
133
100
AcDbEntity
8
0
100
AcDbCircle
10
-2.0009859959057574
20
1.2397854779027198
30
0
40
0.78439244507090156
210
0
220
0
230
1
100
AcDbArc
50
90.00000000000361
51
286.9278950560622
0
ARC
5
134
100
AcDbEntity
8
0
100
AcDbCircle
10
0.53901314813072121
20
1.2418707342237429
30
0
40
0.78439244507089878
210
0
220
-0
230
1
100
AcDbArc
50
17.560945338974076
51
90.000000000003695
0
ARC
5
135
100
AcDbEntity
8
0
100
AcDbCircle
10
0.5390131481307201
20
1.2418707342237401
30
0
40
0.78439244507090167
210
0
220
0
230
1
100
AcDbArc
50
90.00000000000361
51
294.82024551336087
0
ARC
5
136
100
AcDbEntity
8
0
100
AcDbCircle
10
3.0790122921671998
20
1.2439559905447772
30
0
40
0.78439244507089789
210
0
220
-0
230
1
100
AcDbArc
50
20.45474900515941
51
90.000000000003723
0
ARC
5
137
100
AcDbEntity
8
0
100
AcDbCircle
10
3.0790122921671976
20
1.2439559905447739
30
0
40
0.78439244507090111
210
0
220
0
230
1
100
AcDbArc
50
90.000000000003567
51
302.93177266874568
0
ARC
5
138
100
AcDbEntity
8
0
100
AcDbCircle
10
5.6190114362036798
20
1.2460412468658015
30
0
40
0.78439244507089889
210
0
220
-0
230
1
100
AcDbArc
50
24.167952278930741
51
90.000000000003695
0
ARC
5
139
100
AcDbEntity
8
0
100
AcDbCircle
10
5.6190114362036789
20
1.2460412468657984
30
0
40
0.78439244507090211
210
0
220
0
230
1
100
AcDbArc
50
90.000000000003638
51
310.96922130820451
0
ARC
5
140
100
AcDbEntity
8
0
100
AcDbCircle
10
8.1590105802401585
20
1.2481265031868303
30
0
40
0.78439244507089489
210
0
220
-0
230
1
100
AcDbArc
50
28.872097347009202
51
90.000000000003894
0
ARC
5
141
100
AcDbEntity
8
0
100
AcDbCircle
10
8.1590105802401549
20
1.2481265031868238
30
0
40
0.78439244507090111
210
0
220
0
230
1
100
AcDbArc
50
90.000000000003638
51
318.57111918224797
0
LWPOLYLINE
5
142
100
AcDbEntity
8
0
100
AcDbPolyline
90
3
70
1
43
0.0
10
-31.788617491211753
20
23.883985102986735
42
0.54828537626801654
10
-32.499857966620318
20
24.999147096270555
42
0.54855234724152013
10
-33.210826651443242
20
23.883401309454936
42
0.6095996879913046
0
LWPOLYLINE
5
143
100
AcDbEntity
8
0
100
AcDbPolyline
90
3
70
1
43
0.0
10
-29.259696461983285
20
23.863224047182602
42
0.5588581129311424
10
-29.959858822583833
20
25.001232352591572
42
0.55912748722499805
10
-30.659730640262289
20
23.862649356116936
42
0.58960364253945408
0
LWPOLYLINE
5
144
100
AcDbEntity
8
0
100
AcDbPolyline
90
3
70
1
43
0.0
10
-26.733310270512799
20
23.83955539934832
42
0.57110679697913558
10
-27.419859678547361
20
25.003317608912603
42
0.57137901294925963
10
-28.106097405140517
20
23.838991892747295
42
0.56683160874742855
0
LWPOLYLINE
5
145
100
AcDbEntity
8
0
100
AcDbPolyline
90
3
70
1
43
0.0
10
-24.210328572409004
20
23.812355970036009
42
0.58551325341654692
10
-24.879860534510886
20
25.005402865233634
42
0.58578889050472116
10
-25.549056779144131
20
23.811806444066441
42
0.54062823084933986
0
LWPOLYLINE
5
146
100
AcDbEntity
8
0
100
AcDbPolyline
90
3
70
1
43
0.0
10
-21.692053121643291
20
23.780810751669001
42
0.60278003755540155
10
-22.339861390474404
20
25.007488121554662
42
0.60305988729354254
10
-22.987306339645631
20
23.780279071468868
42
0.51007915815053806
0
LWPOLYLINE
5
147
100
AcDbEntity
8
0
100
AcDbPolyline
90
5
70
1
43
0.0
10
-19.180527426827755
20
23.743832941116022
42
0.62398638666378969
10
-19.799862246437922
20
25.009573377875686
42
0.62427157771795638
10
-20.418801686492376
20
23.743324649843444
42
0.095094917535009177
10
-20.187170852620746
20
23.550204008655161
10
-19.412574183379288
20
23.550204008655207
42
0.095302019377494246
0
LWPOLYLINE
5
148
100
AcDbEntity
8
0
100
AcDbPolyline
90
5
70
1
43
0.0
10
-16.679174816146912
20
23.699940272740957
42
0.65091448931925966
10
-17.259863102401447
20
25.011658634196721
42
0.65120672897757181
10
-17.840118275762627
20
23.699463724493611
42
0.076679761595859527
10
-17.647170852620764
20
23.550204008655314
10
-16.872574183379282
20
23.550204008655371
42
0.076886213412623236
0
ARC
5
149
100
AcDbEntity
8
0
100
AcDbCircle
10
-14.719863958364916
20
24.229351445446841
30
0
40
0.784392445070904
210
-0
220
0
230
1
100
AcDbArc
50
-47.932069526049226
51
90.00000000000351
0
ARC
5
150
100
AcDbEntity
8
0
100
AcDbCircle
10
-14.719863958364916
20
24.229351445446845
30
0
40
0.78439244507090056
210
0
220
0
230
1
100
AcDbArc
50
90.00000000000351
51
227.97910747876958
0
ARC
5
151
100
AcDbEntity
8
0
100
AcDbCircle
10
-12.179864814328434
20
24.231436701767876
30
0
40
0.78439244507089789
210
-0
220
0
230
1
100
AcDbArc
50
-55.864804296816381
51
90.000000000004164
0
ARC
5
152
100
AcDbEntity
8
0
100
AcDbCircle
10
-12.179864814328447
20
24.231436701767876
30
0
40
0.78439244507090056
210
0
220
0
230
1
100
AcDbArc
50
90.00000000000324
51
235.9118422494962
0
ARC
5
153
100
AcDbEntity
8
0
100
AcDbCircle
10
-9.6398656702919645
20
24.233521958088893
30
0
40
0.78439244507089989
210
-0
220
0
230
1
100
AcDbArc
50
-69.086028395156745
51
90.000000000003638
0
ARC
5
154
100
AcDbEntity
8
0
100
AcDbCircle
10
-9.6398656702919645
20
24.233521958088893
30
0
40
0.78439244507090056
210
0
220
0
230
1
100
AcDbArc
50
90.000000000003638
51
249.13306634784664
0
CIRCLE
5
155
100
AcDbEntity
8
0
100
AcDbCircle
10
-7.0998665262554876
20
24.235607214409924
30
0
40
0.78439244507090033
210
0
220
-0
230
1
0
CIRCLE
5
156
100
AcDbEntity
8
0
100
AcDbCircle
10
-4.5598673822190028
20
24.237692470730948
30
0
40
0.78439244507090033
210
0
220
-0
230
1
0
CIRCLE
5
157
100
AcDbEntity
8
0
100
AcDbCircle
10
-2.0198682381825228
20
24.23977772705198
30
0
40
0.78439244507090033
210
0
220
-0
230
1
0
CIRCLE
5
158
100
AcDbEntity
8
0
100
AcDbCircle
10
0.5201309058539505
20
24.241862983373004
30
0
40
0.78439244507090033
210
0
220
-0
230
1
0
CIRCLE
5
159
100
AcDbEntity
8
0
100
AcDbCircle
10
3.0601300498904282
20
24.243948239694035
30
0
40
0.78439244507090033
210
0
220
-0
230
1
0
CIRCLE
5
160
100
AcDbEntity
8
0
100
AcDbCircle
10
5.6001291939269056
20
24.246033496015059
30
0
40
0.78439244507090033
210
0
220
-0
230
1
0
CIRCLE
5
161
100
AcDbEntity
8
0
100
AcDbCircle
10
8.1401283379633842
20
24.248118752336087
30
0
40
0.7843924450709
210
0
220
-0
230
1
0
CIRCLE
5
162
100
AcDbEntity
8
0
100
AcDbCircle
10
10.680127481999859
20
24.250204008657114
30
0
40
0.78439244507090033
210
0
220
-0
230
1
0
LWPOLYLINE
5
163
100
AcDbEntity
8
0
100
AcDbPolyline
90
11
70
1
43
0.0
10
12.280127482001612
20
0.2502040086572288
10
14.280127482001481
20
2.2502040086573558
10
14.280127482001102
20
8.2502040086573469
10
12.764667946429483
20
9.7656635442287758
10
12.764667946429093
20
15.93474447308572
10
14.280127482000522
20
17.450204008657341
10
14.280127482000143
20
23.450204008657337
10
12.280127482000021
20
25.450204008657209
10
-37.319872517999862
20
25.450204008654076
10
-37.319872517998263
20
0.050204008654093357
10
12.280127482001625
20
0.050204008657228627
0
LINE
5
164
100
AcDbEntity
8
0
100
AcDbLine
10
-11.792574183379296
20
23.55020400865569
30
2.2204460492503131e-15
11
-12.567170852620775
21
23.550204008655641
31
2.2207819770078756e-15
0
LINE
5
165
100
AcDbEntity
8
0
100
AcDbLine
10
-14.332574183379288
20
23.550204008655527
30
2.2204460492503131e-15
11
-15.107170852620762
21
23.550204008655481
31
2.2207819770078756e-15
0
ELLIPSE
5
166
100
AcDbEntity
8
0
100
AcDbEllipse
10
5.1801275006682097
20
-9.0870349605822867
30
-2.2204460492503131e-15
11
0.99999999999999967
21
5.7963829874499177e-14
31
0.0
40
0.99941444186165673
41
0.027392716536275626
42
1.5707963267948974
0
ELLIPSE
5
167
100
AcDbEntity
8
0
100
AcDbEllipse
10
5.1801275006682097
20
-9.0870349605822867
30
-2.2204460492503131e-15
11
0.99999999999999967
21
5.7963829874499177e-14
31
0.0
40
0.99941444186165673
41
1.5707963267948974
42
3.1141999370539812
0
ELLIPSE
5
168
100
AcDbEntity
8
0
100
AcDbEllipse
10
5.1801275006681937
20
-9.0322884547722158
30
-2.2204460492503131e-15
11
0.99999999999999967
21
5.7963829874499177e-14
31
0.0
40
0.99941444186165673
41
3.1689853701260686
42
6.2557925906437744
0
LWPOLYLINE
5
169
100
AcDbEntity
8
0
100
AcDbPolyline
90
6
70
1
43
0.0
10
-37.319872499330813
20
-25.77725613897482
10
6.3801275005449964
20
-25.777256138972287
10
6.3801275002966342
20
-25.722509633749205
10
6.3801275006681246
20
-7.8329911252701203
10
-37.319872498931865
20
-7.8329911245280304
10
-37.31987249893082
20
-25.722509633851676
0
ELLIPSE
5
170
100
AcDbEntity
8
0
100
AcDbEllipse
10
-36.119872496530881
20
-24.577958806242229
30
-4.4408920985006262e-15
11
1.0000000031599996
21
5.7959639736831624e-14
31
0.0
40
0.99941444186165374
41
0.027392823678805165
42
3.1141999321412026
0
ELLIPSE
5
171
100
AcDbEntity
8
0
100
AcDbEllipse
10
-36.11987249973177
20
-9.0870349605846812
30
-4.4408920985006262e-15
11
0.99999999999999967
21
5.7959639553679162e-14
31
0.0
40
0.99941444186165385
41
0.027392709240883276
42
1.5707963263948965
0
ELLIPSE
5
172
100
AcDbEntity
8
0
100
AcDbEllipse
10
-36.11987249973177
20
-9.0870349605846812
30
-4.4408920985006262e-15
11
0.99999999999999967
21
5.7959639553679162e-14
31
0.0
40
0.99941444186165385
41
1.5707963263948965
42
3.1141999297454515
0
ELLIPSE
5
173
100
AcDbEntity
8
0
100
AcDbEllipse
10
5.1801275010391112
20
-24.577958809437959
30
-2.2204460492503131e-15
11
0.99999999999999967
21
5.7959639553679162e-14
31
0.0
40
0.99941444186165385
41
0.027392723297082373
42
3.1141999438021624
0
ELLIPSE
5
174
100
AcDbEntity
8
0
100
AcDbEllipse
10
-36.119872499330889
20
-24.523212303617626
30
-2.2204460492503131e-15
11
0.999999999999996
21
6.0207276417337889e-14
31
0.0
40
0.99941444186165695
41
4.7123889803846826
42
6.2557927010614165
0
ELLIPSE
5
175
100
AcDbEntity
8
0
100
AcDbEllipse
10
-36.119872499330889
20
-24.523212303617626
30
-2.2204460492503131e-15
11
0.999999999999996
21
6.0207276417337889e-14
31
0.0
40
0.99941444186165695
41
3.1689853619381769
42
4.7123889803846826
0
ELLIPSE
5
176
100
AcDbEntity
8
0
100
AcDbEllipse
10
-36.119872499331798
20
-9.0322884547619413
30
-2.2204460492503131e-15
11
-0.99999999999998712
21
-6.711361618078455e-14
31
0.0
40
0.99941444186165695
41
0.027392709240419821
42
3.1141999297458978
0
ELLIPSE
5
177
100
AcDbEntity
8
0
100
AcDbEllipse
10
5.1801275006690943
20
-24.523212303615232
30
-2.2204460492503131e-15
11
1.0000000000000011
21
5.7950142548791405e-14
31
0.0
40
0.99941444186165684
41
4.7123889803846906
42
6.2557925973919088
0
ELLIPSE
5
178
100
AcDbEntity
8
0
100
AcDbEllipse
10
5.1801275006690943
20
-24.523212303615232
30
-2.2204460492503131e-15
11
1.0000000000000011
21
5.7950142548791405e-14
31
0.0
40
0.99941444186165684
41
3.1689853768869249
42
4.7123889803846906
0
LWPOLYLINE
5
179
100
AcDbEntity
8
0
100
AcDbPolyline
90
8
70
1
43
0.0
10
-35.499872518001041
20
36.750204008653036
10
35.500132490781624
20
36.749803991425772
42
-0.41425212867625305
10
38.499867474007118
20
33.749804019923033
10
38.500127490448023
20
-33.750204007200409
42
-0.41418739611138833
10
35.500127500668967
20
-36.749796026020498
10
-35.499867508103982
20
-36.75019600879989
42
-0.41417500013877789
10
-38.500132491326909
20
-33.750196037186967
10
-38.499872507777525
20
33.749795989826964
42
-0.41423972636530743
0
CIRCLE
5
180
100
AcDbEntity
8
0
100
AcDbCircle
10
34.500132491338974
20
-32.750204008686964
30
0
40
1.6000000000000003
210
0
220
-0
230
1
0
CIRCLE
5
181
100
AcDbEntity
8
0
100
AcDbCircle
10
29.492545491338955
20
-11.757509008686977
30
0
40
0.40000000000000008
210
0
220
-0
230
1
0
CIRCLE
5
182
100
AcDbEntity
8
0
100
AcDbCircle
10
29.492545491338955
20
-9.7575090086869842
30
0
40
0.40000000000000008
210
0
220
-0
230
1
0
CIRCLE
5
183
100
AcDbEntity
8
0
100
AcDbCircle
10
35.276576491338943
20
-0.38323300868697174
30
0
40
0.5
210
0
220
-0
230
1
0
CIRCLE
5
184
100
AcDbEntity
8
0
100
AcDbCircle
10
9.6898204913389563
20
-5.321083008686962
30
0
40
0.44999999999999996
210
0
220
-0
230
1
0
CIRCLE
5
185
100
AcDbEntity
8
0
100
AcDbCircle
10
9.6898204913389563
20
-2.7810830086869842
30
0
40
0.44999999999999996
210
0
220
-0
230
1
0
CIRCLE
5
186
100
AcDbEntity
8
0
100
AcDbCircle
10
1.0001324913389631
20
-1.7502040086869819
30
0
40
0.5
210
0
220
-0
230
1
0
CIRCLE
5
187
100
AcDbEntity
8
0
100
AcDbCircle
10
-34.49986750866104
20
-32.750204008686964
30
0
40
1.6000000000000003
210
0
220
-0
230
1
0
CIRCLE
5
188
100
AcDbEntity
8
0
100
AcDbCircle
10
-27.681216508661031
20
-21.146601008686972
30
0
40
0.40000000000000008
210
0
220
-0
230
1
0
CIRCLE
5
189
100
AcDbEntity
8
0
100
AcDbCircle
10
-27.681216508661031
20
-18.606601008686976
30
0
40
0.40000000000000008
210
0
220
-0
230
1
0
CIRCLE
5
190
100
AcDbEntity
8
0
100
AcDbCircle
10
-35.301216508661035
20
-21.146601008686972
30
0
40
0.40000000000000008
210
0
220
-0
230
1
0
CIRCLE
5
191
100
AcDbEntity
8
0
100
AcDbCircle
10
-35.301216508661035
20
-18.606601008686976
30
0
40
0.40000000000000008
210
0
220
-0
230
1
0
CIRCLE
5
192
100
AcDbEntity
8
0
100
AcDbCircle
10
-1.5398675086610325
20
-1.7502040086869819
30
0
40
0.5
210
0
220
-0
230
1
0
CIRCLE
5
193
100
AcDbEntity
8
0
100
AcDbCircle
10
-4.0798675086610459
20
-1.7502040086869819
30
0
40
0.5
210
0
220
-0
230
1
0
CIRCLE
5
194
100
AcDbEntity
8
0
100
AcDbCircle
10
-6.6198675086610415
20
-1.7502040086869819
30
0
40
0.5
210
0
220
-0
230
1
0
CIRCLE
5
195
100
AcDbEntity
8
0
100
AcDbCircle
10
-9.159867508661037
20
-1.7502040086869819
30
0
40
0.5
210
0
220
-0
230
1
0
CIRCLE
5
196
100
AcDbEntity
8
0
100
AcDbCircle
10
-11.699867508661033
20
-1.7502040086869819
30
0
40
0.5
210
0
220
-0
230
1
0
CIRCLE
5
197
100
AcDbEntity
8
0
100
AcDbCircle
10
-14.239867508661028
20
-1.7502040086869819
30
0
40
0.5
210
0
220
-0
230
1
0
CIRCLE
5
198
100
AcDbEntity
8
0
100
AcDbCircle
10
-16.779867508661042
20
-1.7502040086869819
30
0
40
0.5
210
0
220
-0
230
1
0
CIRCLE
5
199
100
AcDbEntity
8
0
100
AcDbCircle
10
-27.681216508661031
20
-16.06660100868698
30
0
40
0.40000000000000008
210
0
220
-0
230
1
0
CIRCLE
5
200
100
AcDbEntity
8
0
100
AcDbCircle
10
-27.681216508661031
20
-13.526601008686967
30
0
40
0.40000000000000008
210
0
220
-0
230
1
0
CIRCLE
5
201
100
AcDbEntity
8
0
100
AcDbCircle
10
-35.301216508661035
20
-16.06660100868698
30
0
40
0.40000000000000008
210
0
220
-0
230
1
0
CIRCLE
5
202
100
AcDbEntity
8
0
100
AcDbCircle
10
-35.301216508661035
20
-13.526601008686967
30
0
40
0.40000000000000008
210
0
220
-0
230
1
0
CIRCLE
5
203
100
AcDbEntity
8
0
100
AcDbCircle
10
-20.088095508661041
20
-8.156346008686981
30
0
40
0.5
210
0
220
-0
230
1
0
CIRCLE
5
204
100
AcDbEntity
8
0
100
AcDbCircle
10
-20.088095508661041
20
-5.6163460086869677
30
0
40
0.5
210
0
220
-0
230
1
0
CIRCLE
5
205
100
AcDbEntity
8
0
100
AcDbCircle
10
-22.628095508661037
20
-8.156346008686981
30
0
40
0.5
210
0
220
-0
230
1
0
CIRCLE
5
206
100
AcDbEntity
8
0
100
AcDbCircle
10
-25.168095508661033
20
-8.156346008686981
30
0
40
0.5
210
0
220
-0
230
1
0
CIRCLE
5
207
100
AcDbEntity
8
0
100
AcDbCircle
10
-22.628095508661037
20
-5.6163460086869677
30
0
40
0.5
210
0
220
-0
230
1
0
CIRCLE
5
208
100
AcDbEntity
8
0
100
AcDbCircle
10
-25.168095508661033
20
-5.6163460086869677
30
0
40
0.5
210
0
220
-0
230
1
0
CIRCLE
5
209
100
AcDbEntity
8
0
100
AcDbCircle
10
-19.319867508661037
20
-1.7502040086869819
30
0
40
0.5
210
0
220
-0
230
1
0
CIRCLE
5
210
100
AcDbEntity
8
0
100
AcDbCircle
10
-21.859867508661033
20
-1.7502040086869819
30
0
40
0.5
210
0
220
-0
230
1
0
CIRCLE
5
211
100
AcDbEntity
8
0
100
AcDbCircle
10
-24.399867508661046
20
-1.7502040086869819
30
0
40
0.5
210
0
220
-0
230
1
0
CIRCLE
5
212
100
AcDbEntity
8
0
100
AcDbCircle
10
-26.939867508661042
20
-1.7502040086869819
30
0
40
0.5
210
0
220
-0
230
1
0
CIRCLE
5
213
100
AcDbEntity
8
0
100
AcDbCircle
10
-27.708095508661046
20
-8.156346008686981
30
0
40
0.5
210
0
220
-0
230
1
0
CIRCLE
5
214
100
AcDbEntity
8
0
100
AcDbCircle
10
-30.248095508661041
20
-8.156346008686981
30
0
40
0.5
210
0
220
-0
230
1
0
CIRCLE
5
215
100
AcDbEntity
8
0
100
AcDbCircle
10
-27.708095508661046
20
-5.6163460086869677
30
0
40
0.5
210
0
220
-0
230
1
0
CIRCLE
5
216
100
AcDbEntity
8
0
100
AcDbCircle
10
-30.248095508661041
20
-5.6163460086869677
30
0
40
0.5
210
0
220
-0
230
1
0
CIRCLE
5
217
100
AcDbEntity
8
0
100
AcDbCircle
10
-32.788095508661037
20
-8.156346008686981
30
0
40
0.5
210
0
220
-0
230
1
0
CIRCLE
5
218
100
AcDbEntity
8
0
100
AcDbCircle
10
-35.328095508661036
20
-8.156346008686981
30
0
40
0.5
210
0
220
-0
230
1
0
CIRCLE
5
219
100
AcDbEntity
8
0
100
AcDbCircle
10
-32.788095508661037
20
-5.6163460086869677
30
0
40
0.5
210
0
220
-0
230
1
0
CIRCLE
5
220
100
AcDbEntity
8
0
100
AcDbCircle
10
-35.328095508661036
20
-5.6163460086869677
30
0
40
0.5
210
0
220
-0
230
1
0
CIRCLE
5
221
100
AcDbEntity
8
0
100
AcDbCircle
10
-29.479867508661037
20
-1.7502040086869819
30
0
40
0.5
210
0
220
-0
230
1
0
CIRCLE
5
222
100
AcDbEntity
8
0
100
AcDbCircle
10
-32.019867508661036
20
-1.7502040086869819
30
0
40
0.5
210
0
220
-0
230
1
0
CIRCLE
5
223
100
AcDbEntity
8
0
100
AcDbCircle
10
-34.559867508661043
20
-1.7502040086869819
30
0
40
0.5
210
0
220
-0
230
1
0
CIRCLE
5
224
100
AcDbEntity
8
0
100
AcDbCircle
10
35.276576491338943
20
2.1567669913130239
30
0
40
0.5
210
0
220
-0
230
1
0
CIRCLE
5
225
100
AcDbEntity
8
0
100
AcDbCircle
10
35.276576491338943
20
4.6967669913130372
30
0
40
0.5
210
0
220
-0
230
1
0
CIRCLE
5
226
100
AcDbEntity
8
0
100
AcDbCircle
10
32.747167491338956
20
12.895398991313041
30
0
40
0.5
210
0
220
-0
230
1
0
CIRCLE
5
227
100
AcDbEntity
8
0
100
AcDbCircle
10
32.747167491338956
20
15.435398991313019
30
0
40
0.5
210
0
220
-0
230
1
0
CIRCLE
5
228
100
AcDbEntity
8
0
100
AcDbCircle
10
1.0001324913389631
20
13.249795991313018
30
0
40
0.5
210
0
220
-0
230
1
0
CIRCLE
5
229
100
AcDbEntity
8
0
100
AcDbCircle
10
32.747167491338956
20
17.975398991313032
30
0
40
0.5
210
0
220
-0
230
1
0
CIRCLE
5
230
100
AcDbEntity
8
0
100
AcDbCircle
10
32.747167491338956
20
20.515398991313027
30
0
40
0.5
210
0
220
-0
230
1
0
CIRCLE
5
231
100
AcDbEntity
8
0
100
AcDbCircle
10
32.747167491338956
20
23.055398991313034
30
0
40
0.5
210
0
220
-0
230
1
0
CIRCLE
5
232
100
AcDbEntity
8
0
100
AcDbCircle
10
32.747167491338956
20
25.595398991313036
30
0
40
0.5
210
0
220
-0
230
1
0
CIRCLE
5
233
100
AcDbEntity
8
0
100
AcDbCircle
10
34.500132491338974
20
32.749795991313029
30
0
40
1.6000000000000003
210
0
220
-0
230
1
0
CIRCLE
5
234
100
AcDbEntity
8
0
100
AcDbCircle
10
-1.5398675086610325
20
13.249795991313018
30
0
40
0.5
210
0
220
-0
230
1
0
CIRCLE
5
235
100
AcDbEntity
8
0
100
AcDbCircle
10
-4.0798675086610459
20
13.249795991313018
30
0
40
0.5
210
0
220
-0
230
1
0
CIRCLE
5
236
100
AcDbEntity
8
0
100
AcDbCircle
10
-6.6198675086610415
20
13.249795991313018
30
0
40
0.5
210
0
220
-0
230
1
0
CIRCLE
5
237
100
AcDbEntity
8
0
100
AcDbCircle
10
-9.159867508661037
20
13.249795991313018
30
0
40
0.5
210
0
220
-0
230
1
0
CIRCLE
5
238
100
AcDbEntity
8
0
100
AcDbCircle
10
-11.699867508661033
20
13.249795991313018
30
0
40
0.5
210
0
220
-0
230
1
0
CIRCLE
5
239
100
AcDbEntity
8
0
100
AcDbCircle
10
-14.239867508661028
20
13.249795991313018
30
0
40
0.5
210
0
220
-0
230
1
0
CIRCLE
5
240
100
AcDbEntity
8
0
100
AcDbCircle
10
-16.779867508661042
20
13.249795991313018
30
0
40
0.5
210
0
220
-0
230
1
0
CIRCLE
5
241
100
AcDbEntity
8
0
100
AcDbCircle
10
-19.319867508661037
20
13.249795991313018
30
0
40
0.5
210
0
220
-0
230
1
0
CIRCLE
5
242
100
AcDbEntity
8
0
100
AcDbCircle
10
-21.859867508661033
20
13.249795991313018
30
0
40
0.5
210
0
220
-0
230
1
0
CIRCLE
5
243
100
AcDbEntity
8
0
100
AcDbCircle
10
-24.399867508661046
20
13.249795991313018
30
0
40
0.5
210
0
220
-0
230
1
0
CIRCLE
5
244
100
AcDbEntity
8
0
100
AcDbCircle
10
-26.939867508661042
20
13.249795991313018
30
0
40
0.5
210
0
220
-0
230
1
0
CIRCLE
5
245
100
AcDbEntity
8
0
100
AcDbCircle
10
-29.479867508661037
20
13.249795991313018
30
0
40
0.5
210
0
220
-0
230
1
0
CIRCLE
5
246
100
AcDbEntity
8
0
100
AcDbCircle
10
-32.019867508661036
20
13.249795991313018
30
0
40
0.5
210
0
220
-0
230
1
0
CIRCLE
5
247
100
AcDbEntity
8
0
100
AcDbCircle
10
-34.559867508661043
20
13.249795991313018
30
0
40
0.5
210
0
220
-0
230
1
0
CIRCLE
5
248
100
AcDbEntity
8
0
100
AcDbCircle
10
-34.49986750866104
20
32.749795991313029
30
0
40
1.6000000000000003
210
0
220
-0
230
1
0
LWPOLYLINE
5
249
100
AcDbEntity
8
0
100
AcDbPolyline
90
10
70
1
43
0.0
10
-36.571216508661031
20
-12.256601008686967
10
-36.571216508661031
20
-22.416601008686968
10
-26.411216508661035
20
-22.416601008686968
10
-26.411216508661035
20
-12.256601008686967
10
-29.411216508661035
20
-12.256601008686967
10
-29.411216508661035
20
-12.856601008686965
42
-0.41421356237325113
10
-29.911216508661038
20
-13.356601008686969
10
-33.071216508661038
20
-13.356601008686965
42
-0.41421356237325113
10
-33.571216508661038
20
-12.856601008686967
10
-33.571216508661038
20
-12.256601008686967
0
LWPOLYLINE
5
250
100
AcDbEntity
8
0
100
AcDbPolyline
90
8
70
1
43
0.0
10
-29.411216508661042
20
-15.756601008686966
42
0.4142135623732498
10
-29.911216508661038
20
-15.256601008686967
10
-33.071216508661038
20
-15.256601008686967
42
0.41421356237325113
10
-33.571216508661038
20
-15.756601008686966
10
-33.571216508661038
20
-20.016601008686969
42
0.41421356237325113
10
-33.071216508661031
20
-20.516601008686969
10
-29.911216508661038
20
-20.516601008686965
42
0.41421356237325113
10
-29.411216508661035
20
-20.016601008686969
0
ENDSEC
0
SECTION
2
OBJECTS
0
DICTIONARY
5
C
100
AcDbDictionary
3
ACAD_GROUP
350
D
3
ACAD_MLINESTYLE
350
17
0
DICTIONARY
5
D
100
AcDbDictionary
0
DICTIONARY
5
1A
330
C
100
AcDbDictionary
0
DICTIONARY
5
17
100
AcDbDictionary
0
ENDSEC
0
EOF
