M48
; DRILL file {KiCad (6.0.4-0)} date Friday, 02 September 2022 at 16:24:47
; FORMAT={-:-/ absolute / inch / decimal}
; #@! TF.CreationDate,2022-09-02T16:24:47+01:00
; #@! TF.GenerationSoftware,Kicad,Pcbnew,(6.0.4-0)
; #@! TF.FileFunction,Plated,1,2,PTH
FMAT,2
INCH
; #@! TA.AperFunction,Plated,PTH,ViaDrill
T1C0.0157
; #@! TA.AperFunction,Plated,PTH,ViaDrill
T2C0.0236
; #@! TA.AperFunction,Plated,PTH,ComponentDrill
T3C0.0315
; #@! TA.AperFunction,Plated,PTH,ComponentDrill
T4C0.0350
; #@! TA.AperFunction,Plated,PTH,ComponentDrill
T5C0.0374
; #@! TA.AperFunction,Plated,PTH,ComponentDrill
T6C0.0394
; #@! TA.AperFunction,Plated,PTH,ComponentDrill
T7C0.0400
; #@! TA.AperFunction,Plated,PTH,ComponentDrill
T8C0.0472
%
G90
G05
T1
X4.6582Y-4.0133
X4.7294Y-4.4965
X4.9056Y-4.4695
X5.0234Y-4.0758
X5.5423Y-4.3569
X5.5926Y-4.8025
X5.6253Y-4.6693
X5.6788Y-4.9979
X5.8563Y-3.9238
X5.8889Y-5.1217
X6.2358Y-4.5305
X6.2367Y-5.3498
X6.2923Y-4.5349
X6.3891Y-4.6229
X6.4006Y-4.106
X6.9966Y-5.3251
T2
X7.0107Y-3.5385
T3
X6.0393Y-5.0978
X6.0393Y-5.1978
X6.3393Y-5.0978
X6.3393Y-5.1978
T4
X4.7606Y-2.9724
X4.7606Y-3.8674
X4.8606Y-2.9724
X4.8606Y-3.8674
X4.9606Y-2.9724
X4.9606Y-3.8674
X5.0606Y-2.9724
X5.0606Y-3.8674
X5.1606Y-2.9724
X5.1606Y-3.8674
X5.2606Y-2.9724
X5.2606Y-3.8674
X5.3606Y-2.9724
X5.3606Y-3.8674
X5.4606Y-2.9724
X5.4606Y-3.8674
X5.5606Y-2.9724
X5.5606Y-3.8674
X5.6606Y-2.9724
X5.6606Y-3.8674
X5.7606Y-2.9724
X5.7606Y-3.8674
X5.8606Y-2.9724
X5.8606Y-3.8674
X5.9606Y-2.9724
X5.9606Y-3.8674
X6.0606Y-2.9724
X6.0606Y-3.8674
X6.1606Y-2.9724
X6.1606Y-3.8674
X6.2606Y-2.9724
X6.2606Y-3.8674
X6.3606Y-2.9724
X6.3606Y-3.8674
X6.4606Y-2.9724
X6.4606Y-3.8674
T5
X6.624Y-2.625
X6.7224Y-2.625
X6.7963Y-4.1437
X6.7963Y-4.2421
X6.7963Y-4.3406
X6.7963Y-4.439
X6.7963Y-4.687
X6.7963Y-4.7854
X6.7963Y-4.8839
X6.7963Y-4.9823
X6.8209Y-2.625
X7.125Y-3.3095
X7.125Y-3.408
X7.125Y-3.5064
X7.125Y-3.7687
X7.125Y-3.8671
X7.125Y-3.9656
X7.125Y-4.2279
X7.125Y-4.3263
X7.125Y-4.4247
X7.128Y-4.687
X7.128Y-4.7854
X7.128Y-4.8839
X7.128Y-4.9823
X7.4596Y-3.7008
X7.4596Y-3.7992
X7.4596Y-3.8976
X7.4596Y-4.1939
X7.4596Y-4.2923
X7.4596Y-4.3907
X7.4596Y-4.4892
X7.4596Y-4.7854
X7.4596Y-4.8839
X7.4596Y-4.9823
T6
X4.7673Y-4.2717
X4.7673Y-4.8717
X4.7811Y-3.4055
X4.7811Y-3.9961
X4.8673Y-4.2717
X4.8673Y-4.8717
X4.8811Y-3.4055
X4.8811Y-3.9961
X4.9673Y-4.2717
X4.9673Y-4.8717
X4.9811Y-3.4055
X4.9811Y-3.9961
X5.0673Y-4.2717
X5.0673Y-4.8717
X5.0811Y-3.4055
X5.0811Y-3.9961
X5.1673Y-4.2717
X5.1673Y-4.8717
X5.1811Y-3.4055
X5.1811Y-3.9961
X5.2673Y-4.2717
X5.2673Y-4.8717
X5.2811Y-3.4055
X5.2811Y-3.9961
X5.3673Y-4.2717
X5.3673Y-4.8717
X5.3811Y-3.4055
X5.3811Y-3.9961
X5.4673Y-4.2717
X5.4673Y-4.8717
X5.4811Y-3.4055
X5.4811Y-3.9961
X5.5673Y-4.2717
X5.5673Y-4.8717
X5.5811Y-3.4055
X5.5811Y-3.9961
X5.6673Y-4.2717
X5.6673Y-4.8717
X5.6811Y-3.4055
X5.6811Y-3.9961
X5.7673Y-4.2717
X5.7673Y-4.8717
X5.7811Y-3.4055
X5.7811Y-3.9961
X5.8673Y-4.2717
X5.8673Y-4.8717
X5.8811Y-3.4055
X5.8811Y-3.9961
X5.9673Y-4.2717
X5.9673Y-4.8717
X5.9811Y-3.4055
X5.9811Y-3.9961
X6.0673Y-4.2717
X6.0673Y-4.8717
X6.0811Y-3.4055
X6.0811Y-3.9961
X6.1673Y-4.2717
X6.1673Y-4.8717
X6.1811Y-3.4055
X6.1811Y-3.9961
X7.0669Y-2.627
X7.125Y-2.9488
X7.125Y-3.0472
X7.1654Y-2.627
T7
X5.6742Y-4.3709
X5.6742Y-4.7709
X5.7742Y-4.3709
X5.7742Y-4.7709
X5.8742Y-4.3709
X5.8742Y-4.7709
X5.9742Y-4.3709
X5.9742Y-4.7709
X6.0742Y-4.3709
X6.0742Y-4.7709
X6.1742Y-4.3709
X6.1742Y-4.7709
T8
X5.1614Y-5.2283
X5.1694Y-2.626
X5.2991Y-5.2283
X5.3072Y-2.626
X5.4369Y-5.2283
X5.445Y-2.626
X5.5747Y-5.2283
X5.5828Y-2.626
X5.7125Y-5.2283
X5.7206Y-2.626
X5.8503Y-5.2283
X5.8583Y-2.626
T0
M30
