%TF.GenerationSoftware,KiCad,Pcbnew,(6.0.4-0)*%
%TF.CreationDate,2022-09-02T16:24:51+01:00*%
%TF.ProjectId,eChook Wireless Board,6543686f-6f6b-4205-9769-72656c657373,rev?*%
%TF.SameCoordinates,Original*%
%TF.FileFunction,Legend,Top*%
%TF.FilePolarity,Positive*%
%FSLAX46Y46*%
G04 Gerber Fmt 4.6, Leading zero omitted, Abs format (unit mm)*
G04 Created by KiCad (PCBNEW (6.0.4-0)) date 2022-09-02 16:24:51*
%MOMM*%
%LPD*%
G01*
G04 APERTURE LIST*
%ADD10C,0.020000*%
%ADD11C,0.100000*%
%ADD12C,0.200000*%
%ADD13C,0.300000*%
%ADD14C,0.250000*%
%ADD15C,0.120000*%
%ADD16C,0.152400*%
%ADD17C,0.203200*%
G04 APERTURE END LIST*
D10*
G36*
X170915997Y-92160484D02*
G01*
X170916526Y-92295421D01*
X170916526Y-95674151D01*
X176077753Y-95674151D01*
X176077753Y-95955932D01*
X175970332Y-96054886D01*
X175391159Y-96587228D01*
X173261528Y-96587228D01*
X173258497Y-96581517D01*
X173255538Y-96575718D01*
X173249721Y-96564010D01*
X173246808Y-96558175D01*
X173243855Y-96552402D01*
X173240833Y-96546728D01*
X173237716Y-96541190D01*
X173189985Y-96465032D01*
X173137195Y-96393725D01*
X173079362Y-96327279D01*
X173016507Y-96265701D01*
X172948648Y-96209001D01*
X172875803Y-96157186D01*
X172797991Y-96110265D01*
X172715230Y-96068248D01*
X172627539Y-96031141D01*
X172534937Y-95998955D01*
X172437442Y-95971696D01*
X172335073Y-95949375D01*
X172227849Y-95931999D01*
X172115787Y-95919577D01*
X171998908Y-95912118D01*
X171877228Y-95909630D01*
X171662916Y-95909630D01*
X171602369Y-95910308D01*
X171542976Y-95912344D01*
X171484748Y-95915734D01*
X171427697Y-95920478D01*
X171371835Y-95926573D01*
X171317174Y-95934019D01*
X171263726Y-95942814D01*
X171211503Y-95952955D01*
X171160518Y-95964443D01*
X171110781Y-95977274D01*
X171062306Y-95991448D01*
X171015104Y-96006963D01*
X170969187Y-96023818D01*
X170924568Y-96042010D01*
X170881257Y-96061539D01*
X170839268Y-96082403D01*
X170798003Y-96104654D01*
X170757758Y-96128046D01*
X170718538Y-96152572D01*
X170680352Y-96178223D01*
X170643209Y-96204994D01*
X170607115Y-96232877D01*
X170572078Y-96261866D01*
X170538106Y-96291953D01*
X170505207Y-96323131D01*
X170473388Y-96355394D01*
X170442658Y-96388734D01*
X170413024Y-96423145D01*
X170384494Y-96458619D01*
X170357075Y-96495150D01*
X170330776Y-96532730D01*
X170305603Y-96571353D01*
X170278387Y-96616453D01*
X170252476Y-96662824D01*
X170227836Y-96710423D01*
X170204433Y-96759207D01*
X170182234Y-96809131D01*
X170161203Y-96860153D01*
X170141307Y-96912230D01*
X170122512Y-96965317D01*
X170122512Y-94186133D01*
X170122247Y-91565965D01*
X170122247Y-91366734D01*
X170915997Y-92160484D01*
G37*
X170915997Y-92160484D02*
X170916526Y-92295421D01*
X170916526Y-95674151D01*
X176077753Y-95674151D01*
X176077753Y-95955932D01*
X175970332Y-96054886D01*
X175391159Y-96587228D01*
X173261528Y-96587228D01*
X173258497Y-96581517D01*
X173255538Y-96575718D01*
X173249721Y-96564010D01*
X173246808Y-96558175D01*
X173243855Y-96552402D01*
X173240833Y-96546728D01*
X173237716Y-96541190D01*
X173189985Y-96465032D01*
X173137195Y-96393725D01*
X173079362Y-96327279D01*
X173016507Y-96265701D01*
X172948648Y-96209001D01*
X172875803Y-96157186D01*
X172797991Y-96110265D01*
X172715230Y-96068248D01*
X172627539Y-96031141D01*
X172534937Y-95998955D01*
X172437442Y-95971696D01*
X172335073Y-95949375D01*
X172227849Y-95931999D01*
X172115787Y-95919577D01*
X171998908Y-95912118D01*
X171877228Y-95909630D01*
X171662916Y-95909630D01*
X171602369Y-95910308D01*
X171542976Y-95912344D01*
X171484748Y-95915734D01*
X171427697Y-95920478D01*
X171371835Y-95926573D01*
X171317174Y-95934019D01*
X171263726Y-95942814D01*
X171211503Y-95952955D01*
X171160518Y-95964443D01*
X171110781Y-95977274D01*
X171062306Y-95991448D01*
X171015104Y-96006963D01*
X170969187Y-96023818D01*
X170924568Y-96042010D01*
X170881257Y-96061539D01*
X170839268Y-96082403D01*
X170798003Y-96104654D01*
X170757758Y-96128046D01*
X170718538Y-96152572D01*
X170680352Y-96178223D01*
X170643209Y-96204994D01*
X170607115Y-96232877D01*
X170572078Y-96261866D01*
X170538106Y-96291953D01*
X170505207Y-96323131D01*
X170473388Y-96355394D01*
X170442658Y-96388734D01*
X170413024Y-96423145D01*
X170384494Y-96458619D01*
X170357075Y-96495150D01*
X170330776Y-96532730D01*
X170305603Y-96571353D01*
X170278387Y-96616453D01*
X170252476Y-96662824D01*
X170227836Y-96710423D01*
X170204433Y-96759207D01*
X170182234Y-96809131D01*
X170161203Y-96860153D01*
X170141307Y-96912230D01*
X170122512Y-96965317D01*
X170122512Y-94186133D01*
X170122247Y-91565965D01*
X170122247Y-91366734D01*
X170915997Y-92160484D01*
G36*
X172901166Y-94145124D02*
G01*
X172444759Y-94145124D01*
X172444759Y-93688718D01*
X172901166Y-94145124D01*
G37*
X172901166Y-94145124D02*
X172444759Y-94145124D01*
X172444759Y-93688718D01*
X172901166Y-94145124D01*
G36*
X171988357Y-96070538D02*
G01*
X172094632Y-96077011D01*
X172196318Y-96087799D01*
X172245439Y-96094810D01*
X172293413Y-96102900D01*
X172340240Y-96112068D01*
X172385919Y-96122314D01*
X172430450Y-96133639D01*
X172473833Y-96146041D01*
X172516068Y-96159521D01*
X172557156Y-96174078D01*
X172597096Y-96189714D01*
X172635888Y-96206427D01*
X172673531Y-96224217D01*
X172710027Y-96243085D01*
X172745375Y-96263030D01*
X172779574Y-96284052D01*
X172812626Y-96306151D01*
X172844529Y-96329327D01*
X172875284Y-96353580D01*
X172904890Y-96378910D01*
X172933348Y-96405317D01*
X172960658Y-96432800D01*
X172986819Y-96461359D01*
X173011832Y-96490995D01*
X173035696Y-96521707D01*
X173058412Y-96553496D01*
X173079979Y-96586360D01*
X173100397Y-96620301D01*
X173138844Y-96691025D01*
X173174811Y-96765186D01*
X173208297Y-96842784D01*
X173239303Y-96923819D01*
X173267828Y-97008293D01*
X173293873Y-97096207D01*
X173317438Y-97187560D01*
X173338522Y-97282355D01*
X173357125Y-97380591D01*
X173373248Y-97482269D01*
X173386891Y-97587391D01*
X173398053Y-97695956D01*
X173406735Y-97807967D01*
X173412936Y-97923422D01*
X173416656Y-98042325D01*
X173417897Y-98164674D01*
X173417897Y-98617376D01*
X175625580Y-96587228D01*
X176077488Y-96171567D01*
X176077488Y-97299221D01*
X173528493Y-99633640D01*
X173512494Y-99648228D01*
X173496247Y-99662227D01*
X173479752Y-99675637D01*
X173463008Y-99688458D01*
X173446017Y-99700690D01*
X173428778Y-99712333D01*
X173411291Y-99723386D01*
X173393555Y-99733851D01*
X173375572Y-99743726D01*
X173357340Y-99753012D01*
X173338861Y-99761710D01*
X173320133Y-99769818D01*
X173301158Y-99777337D01*
X173281934Y-99784266D01*
X173262463Y-99790607D01*
X173242743Y-99796359D01*
X173222948Y-99801537D01*
X173203351Y-99806057D01*
X173183949Y-99809921D01*
X173164740Y-99813127D01*
X173145724Y-99815675D01*
X173126899Y-99817567D01*
X173108262Y-99818801D01*
X173089814Y-99819377D01*
X173071551Y-99819297D01*
X173053473Y-99818559D01*
X173035577Y-99817164D01*
X173017863Y-99815111D01*
X173000329Y-99812401D01*
X172982974Y-99809034D01*
X172965795Y-99805009D01*
X172948791Y-99800327D01*
X172933099Y-99795010D01*
X172917675Y-99788979D01*
X172902520Y-99782236D01*
X172887635Y-99774779D01*
X172873021Y-99766609D01*
X172858680Y-99757725D01*
X172844612Y-99748129D01*
X172830820Y-99737820D01*
X172817303Y-99726797D01*
X172804063Y-99715061D01*
X172791102Y-99702613D01*
X172778420Y-99689451D01*
X172766018Y-99675576D01*
X172753899Y-99660987D01*
X172742062Y-99645686D01*
X172730509Y-99629671D01*
X172719456Y-99612990D01*
X172709115Y-99595788D01*
X172699488Y-99578063D01*
X172690574Y-99559817D01*
X172682373Y-99541049D01*
X172674885Y-99521757D01*
X172668110Y-99501942D01*
X172662049Y-99481604D01*
X172656700Y-99460742D01*
X172652065Y-99439355D01*
X172648142Y-99417443D01*
X172644933Y-99395007D01*
X172642437Y-99372044D01*
X172640655Y-99348556D01*
X172639585Y-99324542D01*
X172639228Y-99300000D01*
X172639228Y-97926284D01*
X172638611Y-97863013D01*
X172636759Y-97802187D01*
X172633670Y-97743806D01*
X172629344Y-97687870D01*
X172623779Y-97634380D01*
X172616974Y-97583337D01*
X172608928Y-97534743D01*
X172599640Y-97488597D01*
X172589109Y-97444901D01*
X172577333Y-97403654D01*
X172564311Y-97364859D01*
X172550043Y-97328516D01*
X172534527Y-97294625D01*
X172517761Y-97263187D01*
X172499745Y-97234204D01*
X172480478Y-97207675D01*
X172459624Y-97183119D01*
X172436650Y-97160149D01*
X172411557Y-97138766D01*
X172384348Y-97118970D01*
X172355022Y-97100759D01*
X172323581Y-97084134D01*
X172290026Y-97069094D01*
X172254359Y-97055639D01*
X172216580Y-97043769D01*
X172176691Y-97033482D01*
X172134692Y-97024779D01*
X172090586Y-97017659D01*
X172044372Y-97012122D01*
X171996053Y-97008168D01*
X171945630Y-97005795D01*
X171893103Y-97005005D01*
X171646776Y-97005005D01*
X171594283Y-97005795D01*
X171543961Y-97008168D01*
X171495809Y-97012122D01*
X171449827Y-97017659D01*
X171406016Y-97024779D01*
X171364375Y-97033482D01*
X171324904Y-97043769D01*
X171287604Y-97055639D01*
X171252475Y-97069094D01*
X171219515Y-97084134D01*
X171203850Y-97092249D01*
X171188727Y-97100759D01*
X171174146Y-97109666D01*
X171160108Y-97118970D01*
X171146613Y-97128670D01*
X171133660Y-97138766D01*
X171121250Y-97149259D01*
X171109383Y-97160149D01*
X171098058Y-97171436D01*
X171087275Y-97183119D01*
X171077036Y-97195199D01*
X171067339Y-97207675D01*
X171049120Y-97234204D01*
X171032068Y-97263187D01*
X171016184Y-97294625D01*
X171001470Y-97328516D01*
X170987926Y-97364859D01*
X170975554Y-97403654D01*
X170964354Y-97444901D01*
X170954328Y-97488597D01*
X170945478Y-97534743D01*
X170937804Y-97583337D01*
X170931307Y-97634380D01*
X170925989Y-97687870D01*
X170921851Y-97743806D01*
X170918893Y-97802187D01*
X170917118Y-97863013D01*
X170916526Y-97926284D01*
X170916526Y-100908932D01*
X170122247Y-101637065D01*
X170123041Y-101332794D01*
X170123041Y-98124986D01*
X170124157Y-98016775D01*
X170127506Y-97910422D01*
X170133087Y-97805922D01*
X170140900Y-97703274D01*
X170150946Y-97602473D01*
X170163224Y-97503517D01*
X170177735Y-97406403D01*
X170194478Y-97311128D01*
X170203811Y-97264384D01*
X170213950Y-97218409D01*
X170224895Y-97173205D01*
X170236646Y-97128772D01*
X170249203Y-97085112D01*
X170262567Y-97042224D01*
X170276737Y-97000109D01*
X170291713Y-96958769D01*
X170307495Y-96918205D01*
X170324083Y-96878416D01*
X170341477Y-96839403D01*
X170359677Y-96801169D01*
X170378684Y-96763712D01*
X170398497Y-96727035D01*
X170419116Y-96691137D01*
X170440541Y-96656020D01*
X170462849Y-96621817D01*
X170486119Y-96588565D01*
X170510350Y-96556264D01*
X170535543Y-96524915D01*
X170561696Y-96494519D01*
X170588811Y-96465078D01*
X170616886Y-96436593D01*
X170645923Y-96409064D01*
X170675922Y-96382494D01*
X170706881Y-96356883D01*
X170738801Y-96332232D01*
X170771683Y-96308543D01*
X170805526Y-96285817D01*
X170840330Y-96264054D01*
X170876095Y-96243257D01*
X170912822Y-96223426D01*
X170950634Y-96204636D01*
X170989655Y-96187062D01*
X171029886Y-96170702D01*
X171071328Y-96155556D01*
X171113980Y-96141625D01*
X171157844Y-96128906D01*
X171202919Y-96117401D01*
X171249206Y-96107109D01*
X171296706Y-96098028D01*
X171345418Y-96090160D01*
X171395344Y-96083504D01*
X171446482Y-96078058D01*
X171498835Y-96073824D01*
X171552402Y-96070799D01*
X171607184Y-96068985D01*
X171663180Y-96068380D01*
X171877493Y-96068380D01*
X171988357Y-96070538D01*
G37*
X171988357Y-96070538D02*
X172094632Y-96077011D01*
X172196318Y-96087799D01*
X172245439Y-96094810D01*
X172293413Y-96102900D01*
X172340240Y-96112068D01*
X172385919Y-96122314D01*
X172430450Y-96133639D01*
X172473833Y-96146041D01*
X172516068Y-96159521D01*
X172557156Y-96174078D01*
X172597096Y-96189714D01*
X172635888Y-96206427D01*
X172673531Y-96224217D01*
X172710027Y-96243085D01*
X172745375Y-96263030D01*
X172779574Y-96284052D01*
X172812626Y-96306151D01*
X172844529Y-96329327D01*
X172875284Y-96353580D01*
X172904890Y-96378910D01*
X172933348Y-96405317D01*
X172960658Y-96432800D01*
X172986819Y-96461359D01*
X173011832Y-96490995D01*
X173035696Y-96521707D01*
X173058412Y-96553496D01*
X173079979Y-96586360D01*
X173100397Y-96620301D01*
X173138844Y-96691025D01*
X173174811Y-96765186D01*
X173208297Y-96842784D01*
X173239303Y-96923819D01*
X173267828Y-97008293D01*
X173293873Y-97096207D01*
X173317438Y-97187560D01*
X173338522Y-97282355D01*
X173357125Y-97380591D01*
X173373248Y-97482269D01*
X173386891Y-97587391D01*
X173398053Y-97695956D01*
X173406735Y-97807967D01*
X173412936Y-97923422D01*
X173416656Y-98042325D01*
X173417897Y-98164674D01*
X173417897Y-98617376D01*
X175625580Y-96587228D01*
X176077488Y-96171567D01*
X176077488Y-97299221D01*
X173528493Y-99633640D01*
X173512494Y-99648228D01*
X173496247Y-99662227D01*
X173479752Y-99675637D01*
X173463008Y-99688458D01*
X173446017Y-99700690D01*
X173428778Y-99712333D01*
X173411291Y-99723386D01*
X173393555Y-99733851D01*
X173375572Y-99743726D01*
X173357340Y-99753012D01*
X173338861Y-99761710D01*
X173320133Y-99769818D01*
X173301158Y-99777337D01*
X173281934Y-99784266D01*
X173262463Y-99790607D01*
X173242743Y-99796359D01*
X173222948Y-99801537D01*
X173203351Y-99806057D01*
X173183949Y-99809921D01*
X173164740Y-99813127D01*
X173145724Y-99815675D01*
X173126899Y-99817567D01*
X173108262Y-99818801D01*
X173089814Y-99819377D01*
X173071551Y-99819297D01*
X173053473Y-99818559D01*
X173035577Y-99817164D01*
X173017863Y-99815111D01*
X173000329Y-99812401D01*
X172982974Y-99809034D01*
X172965795Y-99805009D01*
X172948791Y-99800327D01*
X172933099Y-99795010D01*
X172917675Y-99788979D01*
X172902520Y-99782236D01*
X172887635Y-99774779D01*
X172873021Y-99766609D01*
X172858680Y-99757725D01*
X172844612Y-99748129D01*
X172830820Y-99737820D01*
X172817303Y-99726797D01*
X172804063Y-99715061D01*
X172791102Y-99702613D01*
X172778420Y-99689451D01*
X172766018Y-99675576D01*
X172753899Y-99660987D01*
X172742062Y-99645686D01*
X172730509Y-99629671D01*
X172719456Y-99612990D01*
X172709115Y-99595788D01*
X172699488Y-99578063D01*
X172690574Y-99559817D01*
X172682373Y-99541049D01*
X172674885Y-99521757D01*
X172668110Y-99501942D01*
X172662049Y-99481604D01*
X172656700Y-99460742D01*
X172652065Y-99439355D01*
X172648142Y-99417443D01*
X172644933Y-99395007D01*
X172642437Y-99372044D01*
X172640655Y-99348556D01*
X172639585Y-99324542D01*
X172639228Y-99300000D01*
X172639228Y-97926284D01*
X172638611Y-97863013D01*
X172636759Y-97802187D01*
X172633670Y-97743806D01*
X172629344Y-97687870D01*
X172623779Y-97634380D01*
X172616974Y-97583337D01*
X172608928Y-97534743D01*
X172599640Y-97488597D01*
X172589109Y-97444901D01*
X172577333Y-97403654D01*
X172564311Y-97364859D01*
X172550043Y-97328516D01*
X172534527Y-97294625D01*
X172517761Y-97263187D01*
X172499745Y-97234204D01*
X172480478Y-97207675D01*
X172459624Y-97183119D01*
X172436650Y-97160149D01*
X172411557Y-97138766D01*
X172384348Y-97118970D01*
X172355022Y-97100759D01*
X172323581Y-97084134D01*
X172290026Y-97069094D01*
X172254359Y-97055639D01*
X172216580Y-97043769D01*
X172176691Y-97033482D01*
X172134692Y-97024779D01*
X172090586Y-97017659D01*
X172044372Y-97012122D01*
X171996053Y-97008168D01*
X171945630Y-97005795D01*
X171893103Y-97005005D01*
X171646776Y-97005005D01*
X171594283Y-97005795D01*
X171543961Y-97008168D01*
X171495809Y-97012122D01*
X171449827Y-97017659D01*
X171406016Y-97024779D01*
X171364375Y-97033482D01*
X171324904Y-97043769D01*
X171287604Y-97055639D01*
X171252475Y-97069094D01*
X171219515Y-97084134D01*
X171203850Y-97092249D01*
X171188727Y-97100759D01*
X171174146Y-97109666D01*
X171160108Y-97118970D01*
X171146613Y-97128670D01*
X171133660Y-97138766D01*
X171121250Y-97149259D01*
X171109383Y-97160149D01*
X171098058Y-97171436D01*
X171087275Y-97183119D01*
X171077036Y-97195199D01*
X171067339Y-97207675D01*
X171049120Y-97234204D01*
X171032068Y-97263187D01*
X171016184Y-97294625D01*
X171001470Y-97328516D01*
X170987926Y-97364859D01*
X170975554Y-97403654D01*
X170964354Y-97444901D01*
X170954328Y-97488597D01*
X170945478Y-97534743D01*
X170937804Y-97583337D01*
X170931307Y-97634380D01*
X170925989Y-97687870D01*
X170921851Y-97743806D01*
X170918893Y-97802187D01*
X170917118Y-97863013D01*
X170916526Y-97926284D01*
X170916526Y-100908932D01*
X170122247Y-101637065D01*
X170123041Y-101332794D01*
X170123041Y-98124986D01*
X170124157Y-98016775D01*
X170127506Y-97910422D01*
X170133087Y-97805922D01*
X170140900Y-97703274D01*
X170150946Y-97602473D01*
X170163224Y-97503517D01*
X170177735Y-97406403D01*
X170194478Y-97311128D01*
X170203811Y-97264384D01*
X170213950Y-97218409D01*
X170224895Y-97173205D01*
X170236646Y-97128772D01*
X170249203Y-97085112D01*
X170262567Y-97042224D01*
X170276737Y-97000109D01*
X170291713Y-96958769D01*
X170307495Y-96918205D01*
X170324083Y-96878416D01*
X170341477Y-96839403D01*
X170359677Y-96801169D01*
X170378684Y-96763712D01*
X170398497Y-96727035D01*
X170419116Y-96691137D01*
X170440541Y-96656020D01*
X170462849Y-96621817D01*
X170486119Y-96588565D01*
X170510350Y-96556264D01*
X170535543Y-96524915D01*
X170561696Y-96494519D01*
X170588811Y-96465078D01*
X170616886Y-96436593D01*
X170645923Y-96409064D01*
X170675922Y-96382494D01*
X170706881Y-96356883D01*
X170738801Y-96332232D01*
X170771683Y-96308543D01*
X170805526Y-96285817D01*
X170840330Y-96264054D01*
X170876095Y-96243257D01*
X170912822Y-96223426D01*
X170950634Y-96204636D01*
X170989655Y-96187062D01*
X171029886Y-96170702D01*
X171071328Y-96155556D01*
X171113980Y-96141625D01*
X171157844Y-96128906D01*
X171202919Y-96117401D01*
X171249206Y-96107109D01*
X171296706Y-96098028D01*
X171345418Y-96090160D01*
X171395344Y-96083504D01*
X171446482Y-96078058D01*
X171498835Y-96073824D01*
X171552402Y-96070799D01*
X171607184Y-96068985D01*
X171663180Y-96068380D01*
X171877493Y-96068380D01*
X171988357Y-96070538D01*
G36*
X172444759Y-94601795D02*
G01*
X171988088Y-94601795D01*
X171988088Y-94145124D01*
X172444759Y-94145124D01*
X172444759Y-94601795D01*
G37*
X172444759Y-94601795D02*
X171988088Y-94601795D01*
X171988088Y-94145124D01*
X172444759Y-94145124D01*
X172444759Y-94601795D01*
G36*
X171531418Y-92775376D02*
G01*
X171075012Y-92775376D01*
X171075012Y-92318970D01*
X171531418Y-92775376D01*
G37*
X171531418Y-92775376D02*
X171075012Y-92775376D01*
X171075012Y-92318970D01*
X171531418Y-92775376D01*
G36*
X171988088Y-94601795D02*
G01*
X171988088Y-95058201D01*
X172444759Y-95058201D01*
X172444759Y-94601795D01*
X172901166Y-94601795D01*
X172901166Y-94145124D01*
X173814507Y-95058465D01*
X173357837Y-95058465D01*
X173357837Y-95514871D01*
X172901166Y-95514871D01*
X172901166Y-95058465D01*
X172901430Y-95058465D01*
X172901430Y-95058201D01*
X173357837Y-95058201D01*
X173357837Y-94601795D01*
X172901430Y-94601795D01*
X172901430Y-95058201D01*
X172901166Y-95058201D01*
X172901166Y-95058465D01*
X172444759Y-95058465D01*
X172444759Y-95514871D01*
X171988088Y-95514871D01*
X171988088Y-95058465D01*
X171531682Y-95058465D01*
X171531682Y-95058201D01*
X171531418Y-95058201D01*
X171531418Y-94601795D01*
X171075012Y-94601795D01*
X171075012Y-94145124D01*
X171531418Y-94145124D01*
X171531418Y-93688718D01*
X171531682Y-93688718D01*
X171531682Y-93688453D01*
X171988088Y-93688453D01*
X171988088Y-93232046D01*
X171531682Y-93232046D01*
X171531682Y-93688453D01*
X171531418Y-93688453D01*
X171531418Y-93688718D01*
X171075012Y-93688718D01*
X171075012Y-93232046D01*
X171531418Y-93232046D01*
X171531418Y-92775376D01*
X171988088Y-93232046D01*
X172444759Y-93688718D01*
X171988088Y-93688718D01*
X171988088Y-94145124D01*
X171531682Y-94145124D01*
X171531682Y-94601795D01*
X171988088Y-94601795D01*
G37*
X171988088Y-94601795D02*
X171988088Y-95058201D01*
X172444759Y-95058201D01*
X172444759Y-94601795D01*
X172901166Y-94601795D01*
X172901166Y-94145124D01*
X173814507Y-95058465D01*
X173357837Y-95058465D01*
X173357837Y-95514871D01*
X172901166Y-95514871D01*
X172901166Y-95058465D01*
X172901430Y-95058465D01*
X172901430Y-95058201D01*
X173357837Y-95058201D01*
X173357837Y-94601795D01*
X172901430Y-94601795D01*
X172901430Y-95058201D01*
X172901166Y-95058201D01*
X172901166Y-95058465D01*
X172444759Y-95058465D01*
X172444759Y-95514871D01*
X171988088Y-95514871D01*
X171988088Y-95058465D01*
X171531682Y-95058465D01*
X171531682Y-95058201D01*
X171531418Y-95058201D01*
X171531418Y-94601795D01*
X171075012Y-94601795D01*
X171075012Y-94145124D01*
X171531418Y-94145124D01*
X171531418Y-93688718D01*
X171531682Y-93688718D01*
X171531682Y-93688453D01*
X171988088Y-93688453D01*
X171988088Y-93232046D01*
X171531682Y-93232046D01*
X171531682Y-93688453D01*
X171531418Y-93688453D01*
X171531418Y-93688718D01*
X171075012Y-93688718D01*
X171075012Y-93232046D01*
X171531418Y-93232046D01*
X171531418Y-92775376D01*
X171988088Y-93232046D01*
X172444759Y-93688718D01*
X171988088Y-93688718D01*
X171988088Y-94145124D01*
X171531682Y-94145124D01*
X171531682Y-94601795D01*
X171988088Y-94601795D01*
G36*
X174270913Y-95514871D02*
G01*
X173814507Y-95514871D01*
X173814507Y-95058465D01*
X174270913Y-95514871D01*
G37*
X174270913Y-95514871D02*
X173814507Y-95514871D01*
X173814507Y-95058465D01*
X174270913Y-95514871D01*
G36*
X171531418Y-95058465D02*
G01*
X171531682Y-95058465D01*
X171531682Y-95514871D01*
X171075012Y-95514871D01*
X171075012Y-95058201D01*
X171531418Y-95058201D01*
X171531418Y-95058465D01*
G37*
X171531418Y-95058465D02*
X171531682Y-95058465D01*
X171531682Y-95514871D01*
X171075012Y-95514871D01*
X171075012Y-95058201D01*
X171531418Y-95058201D01*
X171531418Y-95058465D01*
D11*
X130661904Y-128908809D02*
X130661904Y-128451666D01*
X131461904Y-128680238D02*
X130661904Y-128680238D01*
X131461904Y-128185000D02*
X130661904Y-128185000D01*
X131042857Y-128185000D02*
X131042857Y-127727857D01*
X131461904Y-127727857D02*
X130661904Y-127727857D01*
X131461904Y-126889761D02*
X131080952Y-127156428D01*
X131461904Y-127346904D02*
X130661904Y-127346904D01*
X130661904Y-127042142D01*
X130700000Y-126965952D01*
X130738095Y-126927857D01*
X130814285Y-126889761D01*
X130928571Y-126889761D01*
X131004761Y-126927857D01*
X131042857Y-126965952D01*
X131080952Y-127042142D01*
X131080952Y-127346904D01*
X130661904Y-126661190D02*
X130661904Y-126204047D01*
X131461904Y-126432619D02*
X130661904Y-126432619D01*
D12*
X185561904Y-101543809D02*
X185561904Y-101086666D01*
X186361904Y-101315238D02*
X185561904Y-101315238D01*
X185942857Y-100820000D02*
X185942857Y-100553333D01*
X186361904Y-100439047D02*
X186361904Y-100820000D01*
X185561904Y-100820000D01*
X185561904Y-100439047D01*
X186361904Y-100096190D02*
X185561904Y-100096190D01*
X186133333Y-99829523D01*
X185561904Y-99562857D01*
X186361904Y-99562857D01*
X186361904Y-99181904D02*
X185561904Y-99181904D01*
X185561904Y-98877142D01*
X185600000Y-98800952D01*
X185638095Y-98762857D01*
X185714285Y-98724761D01*
X185828571Y-98724761D01*
X185904761Y-98762857D01*
X185942857Y-98800952D01*
X185980952Y-98877142D01*
X185980952Y-99181904D01*
X169070476Y-71611904D02*
X169070476Y-70811904D01*
X169375238Y-70811904D01*
X169451428Y-70850000D01*
X169489523Y-70888095D01*
X169527619Y-70964285D01*
X169527619Y-71078571D01*
X169489523Y-71154761D01*
X169451428Y-71192857D01*
X169375238Y-71230952D01*
X169070476Y-71230952D01*
X170022857Y-70811904D02*
X170175238Y-70811904D01*
X170251428Y-70850000D01*
X170327619Y-70926190D01*
X170365714Y-71078571D01*
X170365714Y-71345238D01*
X170327619Y-71497619D01*
X170251428Y-71573809D01*
X170175238Y-71611904D01*
X170022857Y-71611904D01*
X169946666Y-71573809D01*
X169870476Y-71497619D01*
X169832380Y-71345238D01*
X169832380Y-71078571D01*
X169870476Y-70926190D01*
X169946666Y-70850000D01*
X170022857Y-70811904D01*
X170632380Y-70811904D02*
X170822857Y-71611904D01*
X170975238Y-71040476D01*
X171127619Y-71611904D01*
X171318095Y-70811904D01*
X171622857Y-71192857D02*
X171889523Y-71192857D01*
X172003809Y-71611904D02*
X171622857Y-71611904D01*
X171622857Y-70811904D01*
X172003809Y-70811904D01*
X172803809Y-71611904D02*
X172537142Y-71230952D01*
X172346666Y-71611904D02*
X172346666Y-70811904D01*
X172651428Y-70811904D01*
X172727619Y-70850000D01*
X172765714Y-70888095D01*
X172803809Y-70964285D01*
X172803809Y-71078571D01*
X172765714Y-71154761D01*
X172727619Y-71192857D01*
X172651428Y-71230952D01*
X172346666Y-71230952D01*
X186323809Y-116467619D02*
X186361904Y-116353333D01*
X186361904Y-116162857D01*
X186323809Y-116086666D01*
X186285714Y-116048571D01*
X186209523Y-116010476D01*
X186133333Y-116010476D01*
X186057142Y-116048571D01*
X186019047Y-116086666D01*
X185980952Y-116162857D01*
X185942857Y-116315238D01*
X185904761Y-116391428D01*
X185866666Y-116429523D01*
X185790476Y-116467619D01*
X185714285Y-116467619D01*
X185638095Y-116429523D01*
X185600000Y-116391428D01*
X185561904Y-116315238D01*
X185561904Y-116124761D01*
X185600000Y-116010476D01*
X185561904Y-115781904D02*
X185561904Y-115324761D01*
X186361904Y-115553333D02*
X185561904Y-115553333D01*
X185942857Y-115058095D02*
X185942857Y-114791428D01*
X186361904Y-114677142D02*
X186361904Y-115058095D01*
X185561904Y-115058095D01*
X185561904Y-114677142D01*
X185942857Y-114334285D02*
X185942857Y-114067619D01*
X186361904Y-113953333D02*
X186361904Y-114334285D01*
X185561904Y-114334285D01*
X185561904Y-113953333D01*
X186361904Y-113153333D02*
X185980952Y-113420000D01*
X186361904Y-113610476D02*
X185561904Y-113610476D01*
X185561904Y-113305714D01*
X185600000Y-113229523D01*
X185638095Y-113191428D01*
X185714285Y-113153333D01*
X185828571Y-113153333D01*
X185904761Y-113191428D01*
X185942857Y-113229523D01*
X185980952Y-113305714D01*
X185980952Y-113610476D01*
X186361904Y-112810476D02*
X185561904Y-112810476D01*
X186361904Y-112429523D02*
X185561904Y-112429523D01*
X186361904Y-111972380D01*
X185561904Y-111972380D01*
X185600000Y-111172380D02*
X185561904Y-111248571D01*
X185561904Y-111362857D01*
X185600000Y-111477142D01*
X185676190Y-111553333D01*
X185752380Y-111591428D01*
X185904761Y-111629523D01*
X186019047Y-111629523D01*
X186171428Y-111591428D01*
X186247619Y-111553333D01*
X186323809Y-111477142D01*
X186361904Y-111362857D01*
X186361904Y-111286666D01*
X186323809Y-111172380D01*
X186285714Y-111134285D01*
X186019047Y-111134285D01*
X186019047Y-111286666D01*
X185561904Y-110258095D02*
X186361904Y-110067619D01*
X185790476Y-109915238D01*
X186361904Y-109762857D01*
X185561904Y-109572380D01*
X186361904Y-109267619D02*
X185561904Y-109267619D01*
X185942857Y-109267619D02*
X185942857Y-108810476D01*
X186361904Y-108810476D02*
X185561904Y-108810476D01*
X185942857Y-108429523D02*
X185942857Y-108162857D01*
X186361904Y-108048571D02*
X186361904Y-108429523D01*
X185561904Y-108429523D01*
X185561904Y-108048571D01*
X185942857Y-107705714D02*
X185942857Y-107439047D01*
X186361904Y-107324761D02*
X186361904Y-107705714D01*
X185561904Y-107705714D01*
X185561904Y-107324761D01*
X186361904Y-106600952D02*
X186361904Y-106981904D01*
X185561904Y-106981904D01*
D11*
X145461904Y-128375476D02*
X145461904Y-128832619D01*
X145461904Y-128604047D02*
X144661904Y-128604047D01*
X144776190Y-128680238D01*
X144852380Y-128756428D01*
X144890476Y-128832619D01*
X144738095Y-128070714D02*
X144700000Y-128032619D01*
X144661904Y-127956428D01*
X144661904Y-127765952D01*
X144700000Y-127689761D01*
X144738095Y-127651666D01*
X144814285Y-127613571D01*
X144890476Y-127613571D01*
X145004761Y-127651666D01*
X145461904Y-128108809D01*
X145461904Y-127613571D01*
X144661904Y-127385000D02*
X145461904Y-127118333D01*
X144661904Y-126851666D01*
X148238095Y-128832619D02*
X148200000Y-128794523D01*
X148161904Y-128718333D01*
X148161904Y-128527857D01*
X148200000Y-128451666D01*
X148238095Y-128413571D01*
X148314285Y-128375476D01*
X148390476Y-128375476D01*
X148504761Y-128413571D01*
X148961904Y-128870714D01*
X148961904Y-128375476D01*
X148428571Y-127689761D02*
X148961904Y-127689761D01*
X148123809Y-127880238D02*
X148695238Y-128070714D01*
X148695238Y-127575476D01*
X148161904Y-127385000D02*
X148961904Y-127118333D01*
X148161904Y-126851666D01*
X141200000Y-128375476D02*
X141161904Y-128451666D01*
X141161904Y-128565952D01*
X141200000Y-128680238D01*
X141276190Y-128756428D01*
X141352380Y-128794523D01*
X141504761Y-128832619D01*
X141619047Y-128832619D01*
X141771428Y-128794523D01*
X141847619Y-128756428D01*
X141923809Y-128680238D01*
X141961904Y-128565952D01*
X141961904Y-128489761D01*
X141923809Y-128375476D01*
X141885714Y-128337380D01*
X141619047Y-128337380D01*
X141619047Y-128489761D01*
X141961904Y-127994523D02*
X141161904Y-127994523D01*
X141961904Y-127537380D01*
X141161904Y-127537380D01*
X141961904Y-127156428D02*
X141161904Y-127156428D01*
X141161904Y-126965952D01*
X141200000Y-126851666D01*
X141276190Y-126775476D01*
X141352380Y-126737380D01*
X141504761Y-126699285D01*
X141619047Y-126699285D01*
X141771428Y-126737380D01*
X141847619Y-126775476D01*
X141923809Y-126851666D01*
X141961904Y-126965952D01*
X141961904Y-127156428D01*
D12*
X163118095Y-132452380D02*
X163118095Y-131452380D01*
X163356190Y-131452380D01*
X163499047Y-131500000D01*
X163594285Y-131595238D01*
X163641904Y-131690476D01*
X163689523Y-131880952D01*
X163689523Y-132023809D01*
X163641904Y-132214285D01*
X163594285Y-132309523D01*
X163499047Y-132404761D01*
X163356190Y-132452380D01*
X163118095Y-132452380D01*
X164118095Y-131928571D02*
X164451428Y-131928571D01*
X164594285Y-132452380D02*
X164118095Y-132452380D01*
X164118095Y-131452380D01*
X164594285Y-131452380D01*
X165356190Y-131928571D02*
X165499047Y-131976190D01*
X165546666Y-132023809D01*
X165594285Y-132119047D01*
X165594285Y-132261904D01*
X165546666Y-132357142D01*
X165499047Y-132404761D01*
X165403809Y-132452380D01*
X165022857Y-132452380D01*
X165022857Y-131452380D01*
X165356190Y-131452380D01*
X165451428Y-131500000D01*
X165499047Y-131547619D01*
X165546666Y-131642857D01*
X165546666Y-131738095D01*
X165499047Y-131833333D01*
X165451428Y-131880952D01*
X165356190Y-131928571D01*
X165022857Y-131928571D01*
X166022857Y-131452380D02*
X166022857Y-132261904D01*
X166070476Y-132357142D01*
X166118095Y-132404761D01*
X166213333Y-132452380D01*
X166403809Y-132452380D01*
X166499047Y-132404761D01*
X166546666Y-132357142D01*
X166594285Y-132261904D01*
X166594285Y-131452380D01*
X167594285Y-131500000D02*
X167499047Y-131452380D01*
X167356190Y-131452380D01*
X167213333Y-131500000D01*
X167118095Y-131595238D01*
X167070476Y-131690476D01*
X167022857Y-131880952D01*
X167022857Y-132023809D01*
X167070476Y-132214285D01*
X167118095Y-132309523D01*
X167213333Y-132404761D01*
X167356190Y-132452380D01*
X167451428Y-132452380D01*
X167594285Y-132404761D01*
X167641904Y-132357142D01*
X167641904Y-132023809D01*
X167451428Y-132023809D01*
X186323809Y-129217619D02*
X186361904Y-129103333D01*
X186361904Y-128912857D01*
X186323809Y-128836666D01*
X186285714Y-128798571D01*
X186209523Y-128760476D01*
X186133333Y-128760476D01*
X186057142Y-128798571D01*
X186019047Y-128836666D01*
X185980952Y-128912857D01*
X185942857Y-129065238D01*
X185904761Y-129141428D01*
X185866666Y-129179523D01*
X185790476Y-129217619D01*
X185714285Y-129217619D01*
X185638095Y-129179523D01*
X185600000Y-129141428D01*
X185561904Y-129065238D01*
X185561904Y-128874761D01*
X185600000Y-128760476D01*
X185561904Y-128531904D02*
X185561904Y-128074761D01*
X186361904Y-128303333D02*
X185561904Y-128303333D01*
X186133333Y-127846190D02*
X186133333Y-127465238D01*
X186361904Y-127922380D02*
X185561904Y-127655714D01*
X186361904Y-127389047D01*
X185561904Y-127236666D02*
X185561904Y-126779523D01*
X186361904Y-127008095D02*
X185561904Y-127008095D01*
X185561904Y-126512857D02*
X186209523Y-126512857D01*
X186285714Y-126474761D01*
X186323809Y-126436666D01*
X186361904Y-126360476D01*
X186361904Y-126208095D01*
X186323809Y-126131904D01*
X186285714Y-126093809D01*
X186209523Y-126055714D01*
X185561904Y-126055714D01*
X186323809Y-125712857D02*
X186361904Y-125598571D01*
X186361904Y-125408095D01*
X186323809Y-125331904D01*
X186285714Y-125293809D01*
X186209523Y-125255714D01*
X186133333Y-125255714D01*
X186057142Y-125293809D01*
X186019047Y-125331904D01*
X185980952Y-125408095D01*
X185942857Y-125560476D01*
X185904761Y-125636666D01*
X185866666Y-125674761D01*
X185790476Y-125712857D01*
X185714285Y-125712857D01*
X185638095Y-125674761D01*
X185600000Y-125636666D01*
X185561904Y-125560476D01*
X185561904Y-125370000D01*
X185600000Y-125255714D01*
X186323809Y-124341428D02*
X186361904Y-124227142D01*
X186361904Y-124036666D01*
X186323809Y-123960476D01*
X186285714Y-123922380D01*
X186209523Y-123884285D01*
X186133333Y-123884285D01*
X186057142Y-123922380D01*
X186019047Y-123960476D01*
X185980952Y-124036666D01*
X185942857Y-124189047D01*
X185904761Y-124265238D01*
X185866666Y-124303333D01*
X185790476Y-124341428D01*
X185714285Y-124341428D01*
X185638095Y-124303333D01*
X185600000Y-124265238D01*
X185561904Y-124189047D01*
X185561904Y-123998571D01*
X185600000Y-123884285D01*
X185561904Y-123617619D02*
X186361904Y-123427142D01*
X185790476Y-123274761D01*
X186361904Y-123122380D01*
X185561904Y-122931904D01*
X186361904Y-122627142D02*
X185561904Y-122627142D01*
X185561904Y-122360476D02*
X185561904Y-121903333D01*
X186361904Y-122131904D02*
X185561904Y-122131904D01*
X186285714Y-121179523D02*
X186323809Y-121217619D01*
X186361904Y-121331904D01*
X186361904Y-121408095D01*
X186323809Y-121522380D01*
X186247619Y-121598571D01*
X186171428Y-121636666D01*
X186019047Y-121674761D01*
X185904761Y-121674761D01*
X185752380Y-121636666D01*
X185676190Y-121598571D01*
X185600000Y-121522380D01*
X185561904Y-121408095D01*
X185561904Y-121331904D01*
X185600000Y-121217619D01*
X185638095Y-121179523D01*
X186361904Y-120836666D02*
X185561904Y-120836666D01*
X185942857Y-120836666D02*
X185942857Y-120379523D01*
X186361904Y-120379523D02*
X185561904Y-120379523D01*
D13*
X172499642Y-90476428D02*
X172571071Y-90619285D01*
X172571071Y-90905000D01*
X172499642Y-91047857D01*
X172356785Y-91119285D01*
X171785357Y-91119285D01*
X171642500Y-91047857D01*
X171571071Y-90905000D01*
X171571071Y-90619285D01*
X171642500Y-90476428D01*
X171785357Y-90405000D01*
X171928214Y-90405000D01*
X172071071Y-91119285D01*
X172428214Y-88905000D02*
X172499642Y-88976428D01*
X172571071Y-89190714D01*
X172571071Y-89333571D01*
X172499642Y-89547857D01*
X172356785Y-89690714D01*
X172213928Y-89762142D01*
X171928214Y-89833571D01*
X171713928Y-89833571D01*
X171428214Y-89762142D01*
X171285357Y-89690714D01*
X171142500Y-89547857D01*
X171071071Y-89333571D01*
X171071071Y-89190714D01*
X171142500Y-88976428D01*
X171213928Y-88905000D01*
X172571071Y-88262142D02*
X171071071Y-88262142D01*
X172571071Y-87619285D02*
X171785357Y-87619285D01*
X171642500Y-87690714D01*
X171571071Y-87833571D01*
X171571071Y-88047857D01*
X171642500Y-88190714D01*
X171713928Y-88262142D01*
X172571071Y-86690714D02*
X172499642Y-86833571D01*
X172428214Y-86905000D01*
X172285357Y-86976428D01*
X171856785Y-86976428D01*
X171713928Y-86905000D01*
X171642500Y-86833571D01*
X171571071Y-86690714D01*
X171571071Y-86476428D01*
X171642500Y-86333571D01*
X171713928Y-86262142D01*
X171856785Y-86190714D01*
X172285357Y-86190714D01*
X172428214Y-86262142D01*
X172499642Y-86333571D01*
X172571071Y-86476428D01*
X172571071Y-86690714D01*
X172571071Y-85333571D02*
X172499642Y-85476428D01*
X172428214Y-85547857D01*
X172285357Y-85619285D01*
X171856785Y-85619285D01*
X171713928Y-85547857D01*
X171642500Y-85476428D01*
X171571071Y-85333571D01*
X171571071Y-85119285D01*
X171642500Y-84976428D01*
X171713928Y-84905000D01*
X171856785Y-84833571D01*
X172285357Y-84833571D01*
X172428214Y-84905000D01*
X172499642Y-84976428D01*
X172571071Y-85119285D01*
X172571071Y-85333571D01*
X172571071Y-84190714D02*
X171071071Y-84190714D01*
X171999642Y-84047857D02*
X172571071Y-83619285D01*
X171571071Y-83619285D02*
X172142500Y-84190714D01*
X174200357Y-91047857D02*
X174200357Y-90547857D01*
X174986071Y-90333571D02*
X174986071Y-91047857D01*
X173486071Y-91047857D01*
X173486071Y-90333571D01*
X174986071Y-89833571D02*
X173986071Y-89047857D01*
X173986071Y-89833571D02*
X174986071Y-89047857D01*
X173986071Y-88476428D02*
X175486071Y-88476428D01*
X174057500Y-88476428D02*
X173986071Y-88333571D01*
X173986071Y-88047857D01*
X174057500Y-87905000D01*
X174128928Y-87833571D01*
X174271785Y-87762142D01*
X174700357Y-87762142D01*
X174843214Y-87833571D01*
X174914642Y-87905000D01*
X174986071Y-88047857D01*
X174986071Y-88333571D01*
X174914642Y-88476428D01*
X174986071Y-86476428D02*
X174200357Y-86476428D01*
X174057500Y-86547857D01*
X173986071Y-86690714D01*
X173986071Y-86976428D01*
X174057500Y-87119285D01*
X174914642Y-86476428D02*
X174986071Y-86619285D01*
X174986071Y-86976428D01*
X174914642Y-87119285D01*
X174771785Y-87190714D01*
X174628928Y-87190714D01*
X174486071Y-87119285D01*
X174414642Y-86976428D01*
X174414642Y-86619285D01*
X174343214Y-86476428D01*
X173986071Y-85762142D02*
X174986071Y-85762142D01*
X174128928Y-85762142D02*
X174057500Y-85690714D01*
X173986071Y-85547857D01*
X173986071Y-85333571D01*
X174057500Y-85190714D01*
X174200357Y-85119285D01*
X174986071Y-85119285D01*
X174914642Y-84476428D02*
X174986071Y-84333571D01*
X174986071Y-84047857D01*
X174914642Y-83905000D01*
X174771785Y-83833571D01*
X174700357Y-83833571D01*
X174557500Y-83905000D01*
X174486071Y-84047857D01*
X174486071Y-84262142D01*
X174414642Y-84405000D01*
X174271785Y-84476428D01*
X174200357Y-84476428D01*
X174057500Y-84405000D01*
X173986071Y-84262142D01*
X173986071Y-84047857D01*
X174057500Y-83905000D01*
X174986071Y-83190714D02*
X173986071Y-83190714D01*
X173486071Y-83190714D02*
X173557500Y-83262142D01*
X173628928Y-83190714D01*
X173557500Y-83119285D01*
X173486071Y-83190714D01*
X173628928Y-83190714D01*
X174986071Y-82262142D02*
X174914642Y-82405000D01*
X174843214Y-82476428D01*
X174700357Y-82547857D01*
X174271785Y-82547857D01*
X174128928Y-82476428D01*
X174057500Y-82405000D01*
X173986071Y-82262142D01*
X173986071Y-82047857D01*
X174057500Y-81905000D01*
X174128928Y-81833571D01*
X174271785Y-81762142D01*
X174700357Y-81762142D01*
X174843214Y-81833571D01*
X174914642Y-81905000D01*
X174986071Y-82047857D01*
X174986071Y-82262142D01*
X173986071Y-81119285D02*
X174986071Y-81119285D01*
X174128928Y-81119285D02*
X174057500Y-81047857D01*
X173986071Y-80905000D01*
X173986071Y-80690714D01*
X174057500Y-80547857D01*
X174200357Y-80476428D01*
X174986071Y-80476428D01*
X174200357Y-78119285D02*
X174271785Y-77905000D01*
X174343214Y-77833571D01*
X174486071Y-77762142D01*
X174700357Y-77762142D01*
X174843214Y-77833571D01*
X174914642Y-77905000D01*
X174986071Y-78047857D01*
X174986071Y-78619285D01*
X173486071Y-78619285D01*
X173486071Y-78119285D01*
X173557500Y-77976428D01*
X173628928Y-77905000D01*
X173771785Y-77833571D01*
X173914642Y-77833571D01*
X174057500Y-77905000D01*
X174128928Y-77976428D01*
X174200357Y-78119285D01*
X174200357Y-78619285D01*
X174986071Y-76905000D02*
X174914642Y-77047857D01*
X174843214Y-77119285D01*
X174700357Y-77190714D01*
X174271785Y-77190714D01*
X174128928Y-77119285D01*
X174057500Y-77047857D01*
X173986071Y-76905000D01*
X173986071Y-76690714D01*
X174057500Y-76547857D01*
X174128928Y-76476428D01*
X174271785Y-76405000D01*
X174700357Y-76405000D01*
X174843214Y-76476428D01*
X174914642Y-76547857D01*
X174986071Y-76690714D01*
X174986071Y-76905000D01*
X174986071Y-75119285D02*
X174200357Y-75119285D01*
X174057500Y-75190714D01*
X173986071Y-75333571D01*
X173986071Y-75619285D01*
X174057500Y-75762142D01*
X174914642Y-75119285D02*
X174986071Y-75262142D01*
X174986071Y-75619285D01*
X174914642Y-75762142D01*
X174771785Y-75833571D01*
X174628928Y-75833571D01*
X174486071Y-75762142D01*
X174414642Y-75619285D01*
X174414642Y-75262142D01*
X174343214Y-75119285D01*
X174986071Y-74405000D02*
X173986071Y-74405000D01*
X174271785Y-74405000D02*
X174128928Y-74333571D01*
X174057500Y-74262142D01*
X173986071Y-74119285D01*
X173986071Y-73976428D01*
X174986071Y-72833571D02*
X173486071Y-72833571D01*
X174914642Y-72833571D02*
X174986071Y-72976428D01*
X174986071Y-73262142D01*
X174914642Y-73405000D01*
X174843214Y-73476428D01*
X174700357Y-73547857D01*
X174271785Y-73547857D01*
X174128928Y-73476428D01*
X174057500Y-73405000D01*
X173986071Y-73262142D01*
X173986071Y-72976428D01*
X174057500Y-72833571D01*
D11*
X134885714Y-128337380D02*
X134923809Y-128375476D01*
X134961904Y-128489761D01*
X134961904Y-128565952D01*
X134923809Y-128680238D01*
X134847619Y-128756428D01*
X134771428Y-128794523D01*
X134619047Y-128832619D01*
X134504761Y-128832619D01*
X134352380Y-128794523D01*
X134276190Y-128756428D01*
X134200000Y-128680238D01*
X134161904Y-128565952D01*
X134161904Y-128489761D01*
X134200000Y-128375476D01*
X134238095Y-128337380D01*
X134961904Y-127537380D02*
X134580952Y-127804047D01*
X134961904Y-127994523D02*
X134161904Y-127994523D01*
X134161904Y-127689761D01*
X134200000Y-127613571D01*
X134238095Y-127575476D01*
X134314285Y-127537380D01*
X134428571Y-127537380D01*
X134504761Y-127575476D01*
X134542857Y-127613571D01*
X134580952Y-127689761D01*
X134580952Y-127994523D01*
X134542857Y-127194523D02*
X134542857Y-126927857D01*
X134961904Y-126813571D02*
X134961904Y-127194523D01*
X134161904Y-127194523D01*
X134161904Y-126813571D01*
X134542857Y-126204047D02*
X134542857Y-126470714D01*
X134961904Y-126470714D02*
X134161904Y-126470714D01*
X134161904Y-126089761D01*
D12*
X177861904Y-103179523D02*
X177061904Y-103179523D01*
X177633333Y-102912857D01*
X177061904Y-102646190D01*
X177861904Y-102646190D01*
X177061904Y-102112857D02*
X177061904Y-101960476D01*
X177100000Y-101884285D01*
X177176190Y-101808095D01*
X177328571Y-101770000D01*
X177595238Y-101770000D01*
X177747619Y-101808095D01*
X177823809Y-101884285D01*
X177861904Y-101960476D01*
X177861904Y-102112857D01*
X177823809Y-102189047D01*
X177747619Y-102265238D01*
X177595238Y-102303333D01*
X177328571Y-102303333D01*
X177176190Y-102265238D01*
X177100000Y-102189047D01*
X177061904Y-102112857D01*
X177061904Y-101541428D02*
X177061904Y-101084285D01*
X177861904Y-101312857D02*
X177061904Y-101312857D01*
X177061904Y-100665238D02*
X177061904Y-100512857D01*
X177100000Y-100436666D01*
X177176190Y-100360476D01*
X177328571Y-100322380D01*
X177595238Y-100322380D01*
X177747619Y-100360476D01*
X177823809Y-100436666D01*
X177861904Y-100512857D01*
X177861904Y-100665238D01*
X177823809Y-100741428D01*
X177747619Y-100817619D01*
X177595238Y-100855714D01*
X177328571Y-100855714D01*
X177176190Y-100817619D01*
X177100000Y-100741428D01*
X177061904Y-100665238D01*
X177861904Y-99522380D02*
X177480952Y-99789047D01*
X177861904Y-99979523D02*
X177061904Y-99979523D01*
X177061904Y-99674761D01*
X177100000Y-99598571D01*
X177138095Y-99560476D01*
X177214285Y-99522380D01*
X177328571Y-99522380D01*
X177404761Y-99560476D01*
X177442857Y-99598571D01*
X177480952Y-99674761D01*
X177480952Y-99979523D01*
X177861904Y-98112857D02*
X177480952Y-98379523D01*
X177861904Y-98570000D02*
X177061904Y-98570000D01*
X177061904Y-98265238D01*
X177100000Y-98189047D01*
X177138095Y-98150952D01*
X177214285Y-98112857D01*
X177328571Y-98112857D01*
X177404761Y-98150952D01*
X177442857Y-98189047D01*
X177480952Y-98265238D01*
X177480952Y-98570000D01*
X177861904Y-97770000D02*
X177061904Y-97770000D01*
X177061904Y-97465238D01*
X177100000Y-97389047D01*
X177138095Y-97350952D01*
X177214285Y-97312857D01*
X177328571Y-97312857D01*
X177404761Y-97350952D01*
X177442857Y-97389047D01*
X177480952Y-97465238D01*
X177480952Y-97770000D01*
X177861904Y-96970000D02*
X177061904Y-96970000D01*
X177633333Y-96703333D01*
X177061904Y-96436666D01*
X177861904Y-96436666D01*
X177061904Y-115005714D02*
X177861904Y-114815238D01*
X177290476Y-114662857D01*
X177861904Y-114510476D01*
X177061904Y-114320000D01*
X177861904Y-114015238D02*
X177061904Y-114015238D01*
X177442857Y-114015238D02*
X177442857Y-113558095D01*
X177861904Y-113558095D02*
X177061904Y-113558095D01*
X177442857Y-113177142D02*
X177442857Y-112910476D01*
X177861904Y-112796190D02*
X177861904Y-113177142D01*
X177061904Y-113177142D01*
X177061904Y-112796190D01*
X177442857Y-112453333D02*
X177442857Y-112186666D01*
X177861904Y-112072380D02*
X177861904Y-112453333D01*
X177061904Y-112453333D01*
X177061904Y-112072380D01*
X177861904Y-111348571D02*
X177861904Y-111729523D01*
X177061904Y-111729523D01*
X177861904Y-110015238D02*
X177480952Y-110281904D01*
X177861904Y-110472380D02*
X177061904Y-110472380D01*
X177061904Y-110167619D01*
X177100000Y-110091428D01*
X177138095Y-110053333D01*
X177214285Y-110015238D01*
X177328571Y-110015238D01*
X177404761Y-110053333D01*
X177442857Y-110091428D01*
X177480952Y-110167619D01*
X177480952Y-110472380D01*
X177861904Y-109672380D02*
X177061904Y-109672380D01*
X177061904Y-109367619D01*
X177100000Y-109291428D01*
X177138095Y-109253333D01*
X177214285Y-109215238D01*
X177328571Y-109215238D01*
X177404761Y-109253333D01*
X177442857Y-109291428D01*
X177480952Y-109367619D01*
X177480952Y-109672380D01*
X177861904Y-108872380D02*
X177061904Y-108872380D01*
X177633333Y-108605714D01*
X177061904Y-108339047D01*
X177861904Y-108339047D01*
X177861904Y-129179523D02*
X177061904Y-129179523D01*
X177138095Y-128836666D02*
X177100000Y-128798571D01*
X177061904Y-128722380D01*
X177061904Y-128531904D01*
X177100000Y-128455714D01*
X177138095Y-128417619D01*
X177214285Y-128379523D01*
X177290476Y-128379523D01*
X177404761Y-128417619D01*
X177861904Y-128874761D01*
X177861904Y-128379523D01*
X177785714Y-127579523D02*
X177823809Y-127617619D01*
X177861904Y-127731904D01*
X177861904Y-127808095D01*
X177823809Y-127922380D01*
X177747619Y-127998571D01*
X177671428Y-128036666D01*
X177519047Y-128074761D01*
X177404761Y-128074761D01*
X177252380Y-128036666D01*
X177176190Y-127998571D01*
X177100000Y-127922380D01*
X177061904Y-127808095D01*
X177061904Y-127731904D01*
X177100000Y-127617619D01*
X177138095Y-127579523D01*
X163501428Y-129428571D02*
X163168095Y-129428571D01*
X163168095Y-129952380D02*
X163168095Y-128952380D01*
X163644285Y-128952380D01*
X163977619Y-129047619D02*
X164025238Y-129000000D01*
X164120476Y-128952380D01*
X164358571Y-128952380D01*
X164453809Y-129000000D01*
X164501428Y-129047619D01*
X164549047Y-129142857D01*
X164549047Y-129238095D01*
X164501428Y-129380952D01*
X163930000Y-129952380D01*
X164549047Y-129952380D01*
X165406190Y-129285714D02*
X165406190Y-129952380D01*
X165168095Y-128904761D02*
X164930000Y-129619047D01*
X165549047Y-129619047D01*
X165930000Y-129571428D02*
X166691904Y-129571428D01*
X166310952Y-129952380D02*
X166310952Y-129190476D01*
D11*
X142123809Y-72458810D02*
X142161904Y-72344524D01*
X142161904Y-72154048D01*
X142123809Y-72077857D01*
X142085714Y-72039762D01*
X142009523Y-72001667D01*
X141933333Y-72001667D01*
X141857142Y-72039762D01*
X141819047Y-72077857D01*
X141780952Y-72154048D01*
X141742857Y-72306429D01*
X141704761Y-72382619D01*
X141666666Y-72420714D01*
X141590476Y-72458810D01*
X141514285Y-72458810D01*
X141438095Y-72420714D01*
X141400000Y-72382619D01*
X141361904Y-72306429D01*
X141361904Y-72115952D01*
X141400000Y-72001667D01*
X142085714Y-71201667D02*
X142123809Y-71239762D01*
X142161904Y-71354048D01*
X142161904Y-71430238D01*
X142123809Y-71544524D01*
X142047619Y-71620714D01*
X141971428Y-71658810D01*
X141819047Y-71696905D01*
X141704761Y-71696905D01*
X141552380Y-71658810D01*
X141476190Y-71620714D01*
X141400000Y-71544524D01*
X141361904Y-71430238D01*
X141361904Y-71354048D01*
X141400000Y-71239762D01*
X141438095Y-71201667D01*
X142161904Y-70401667D02*
X141780952Y-70668333D01*
X142161904Y-70858810D02*
X141361904Y-70858810D01*
X141361904Y-70554048D01*
X141400000Y-70477857D01*
X141438095Y-70439762D01*
X141514285Y-70401667D01*
X141628571Y-70401667D01*
X141704761Y-70439762D01*
X141742857Y-70477857D01*
X141780952Y-70554048D01*
X141780952Y-70858810D01*
D14*
X179985119Y-131147380D02*
X180556547Y-131147380D01*
X180270833Y-132147380D02*
X180270833Y-131147380D01*
X181937500Y-131147380D02*
X181937500Y-131861666D01*
X181889880Y-132004523D01*
X181794642Y-132099761D01*
X181651785Y-132147380D01*
X181556547Y-132147380D01*
X182413690Y-131623571D02*
X182747023Y-131623571D01*
X182889880Y-132147380D02*
X182413690Y-132147380D01*
X182413690Y-131147380D01*
X182889880Y-131147380D01*
X183270833Y-132099761D02*
X183413690Y-132147380D01*
X183651785Y-132147380D01*
X183747023Y-132099761D01*
X183794642Y-132052142D01*
X183842261Y-131956904D01*
X183842261Y-131861666D01*
X183794642Y-131766428D01*
X183747023Y-131718809D01*
X183651785Y-131671190D01*
X183461309Y-131623571D01*
X183366071Y-131575952D01*
X183318452Y-131528333D01*
X183270833Y-131433095D01*
X183270833Y-131337857D01*
X183318452Y-131242619D01*
X183366071Y-131195000D01*
X183461309Y-131147380D01*
X183699404Y-131147380D01*
X183842261Y-131195000D01*
X184270833Y-132147380D02*
X184270833Y-131147380D01*
X184651785Y-131147380D01*
X184747023Y-131195000D01*
X184794642Y-131242619D01*
X184842261Y-131337857D01*
X184842261Y-131480714D01*
X184794642Y-131575952D01*
X184747023Y-131623571D01*
X184651785Y-131671190D01*
X184270833Y-131671190D01*
X185270833Y-131623571D02*
X185604166Y-131623571D01*
X185747023Y-132147380D02*
X185270833Y-132147380D01*
X185270833Y-131147380D01*
X185747023Y-131147380D01*
X186747023Y-132147380D02*
X186413690Y-131671190D01*
X186175595Y-132147380D02*
X186175595Y-131147380D01*
X186556547Y-131147380D01*
X186651785Y-131195000D01*
X186699404Y-131242619D01*
X186747023Y-131337857D01*
X186747023Y-131480714D01*
X186699404Y-131575952D01*
X186651785Y-131623571D01*
X186556547Y-131671190D01*
X186175595Y-131671190D01*
X177747023Y-133852619D02*
X177651785Y-133805000D01*
X177556547Y-133709761D01*
X177413690Y-133566904D01*
X177318452Y-133519285D01*
X177223214Y-133519285D01*
X177270833Y-133757380D02*
X177175595Y-133709761D01*
X177080357Y-133614523D01*
X177032738Y-133424047D01*
X177032738Y-133090714D01*
X177080357Y-132900238D01*
X177175595Y-132805000D01*
X177270833Y-132757380D01*
X177461309Y-132757380D01*
X177556547Y-132805000D01*
X177651785Y-132900238D01*
X177699404Y-133090714D01*
X177699404Y-133424047D01*
X177651785Y-133614523D01*
X177556547Y-133709761D01*
X177461309Y-133757380D01*
X177270833Y-133757380D01*
X178127976Y-133233571D02*
X178461309Y-133233571D01*
X178604166Y-133757380D02*
X178127976Y-133757380D01*
X178127976Y-132757380D01*
X178604166Y-132757380D01*
X179032738Y-133757380D02*
X179032738Y-132757380D01*
X179032738Y-133233571D02*
X179604166Y-133233571D01*
X179604166Y-133757380D02*
X179604166Y-132757380D01*
X180032738Y-133709761D02*
X180175595Y-133757380D01*
X180413690Y-133757380D01*
X180508928Y-133709761D01*
X180556547Y-133662142D01*
X180604166Y-133566904D01*
X180604166Y-133471666D01*
X180556547Y-133376428D01*
X180508928Y-133328809D01*
X180413690Y-133281190D01*
X180223214Y-133233571D01*
X180127976Y-133185952D01*
X180080357Y-133138333D01*
X180032738Y-133043095D01*
X180032738Y-132947857D01*
X180080357Y-132852619D01*
X180127976Y-132805000D01*
X180223214Y-132757380D01*
X180461309Y-132757380D01*
X180604166Y-132805000D01*
X182366071Y-133757380D02*
X182032738Y-133281190D01*
X181794642Y-133757380D02*
X181794642Y-132757380D01*
X182175595Y-132757380D01*
X182270833Y-132805000D01*
X182318452Y-132852619D01*
X182366071Y-132947857D01*
X182366071Y-133090714D01*
X182318452Y-133185952D01*
X182270833Y-133233571D01*
X182175595Y-133281190D01*
X181794642Y-133281190D01*
X182747023Y-133471666D02*
X183223214Y-133471666D01*
X182651785Y-133757380D02*
X182985119Y-132757380D01*
X183318452Y-133757380D01*
X184223214Y-133662142D02*
X184175595Y-133709761D01*
X184032738Y-133757380D01*
X183937500Y-133757380D01*
X183794642Y-133709761D01*
X183699404Y-133614523D01*
X183651785Y-133519285D01*
X183604166Y-133328809D01*
X183604166Y-133185952D01*
X183651785Y-132995476D01*
X183699404Y-132900238D01*
X183794642Y-132805000D01*
X183937500Y-132757380D01*
X184032738Y-132757380D01*
X184175595Y-132805000D01*
X184223214Y-132852619D01*
X184651785Y-133757380D02*
X184651785Y-132757380D01*
X185127976Y-133757380D02*
X185127976Y-132757380D01*
X185699404Y-133757380D01*
X185699404Y-132757380D01*
X186699404Y-132805000D02*
X186604166Y-132757380D01*
X186461309Y-132757380D01*
X186318452Y-132805000D01*
X186223214Y-132900238D01*
X186175595Y-132995476D01*
X186127976Y-133185952D01*
X186127976Y-133328809D01*
X186175595Y-133519285D01*
X186223214Y-133614523D01*
X186318452Y-133709761D01*
X186461309Y-133757380D01*
X186556547Y-133757380D01*
X186699404Y-133709761D01*
X186747023Y-133662142D01*
X186747023Y-133328809D01*
X186556547Y-133328809D01*
D12*
X177861904Y-79929523D02*
X177061904Y-79929523D01*
X177061904Y-79624761D01*
X177100000Y-79548571D01*
X177138095Y-79510476D01*
X177214285Y-79472380D01*
X177328571Y-79472380D01*
X177404761Y-79510476D01*
X177442857Y-79548571D01*
X177480952Y-79624761D01*
X177480952Y-79929523D01*
X177061904Y-79205714D02*
X177861904Y-79015238D01*
X177290476Y-78862857D01*
X177861904Y-78710476D01*
X177061904Y-78520000D01*
X177861904Y-78215238D02*
X177061904Y-78215238D01*
X177633333Y-77948571D01*
X177061904Y-77681904D01*
X177861904Y-77681904D01*
D11*
X148361904Y-73258809D02*
X148361904Y-72801666D01*
X149161904Y-73030238D02*
X148361904Y-73030238D01*
X149161904Y-72535000D02*
X148361904Y-72535000D01*
X148933333Y-72268333D01*
X148361904Y-72001666D01*
X149161904Y-72001666D01*
X149161904Y-71620714D02*
X148361904Y-71620714D01*
X148361904Y-71315952D01*
X148400000Y-71239761D01*
X148438095Y-71201666D01*
X148514285Y-71163571D01*
X148628571Y-71163571D01*
X148704761Y-71201666D01*
X148742857Y-71239761D01*
X148780952Y-71315952D01*
X148780952Y-71620714D01*
X149161904Y-70401666D02*
X149161904Y-70858809D01*
X149161904Y-70630238D02*
X148361904Y-70630238D01*
X148476190Y-70706428D01*
X148552380Y-70782619D01*
X148590476Y-70858809D01*
X138385714Y-128337380D02*
X138423809Y-128375476D01*
X138461904Y-128489761D01*
X138461904Y-128565952D01*
X138423809Y-128680238D01*
X138347619Y-128756428D01*
X138271428Y-128794523D01*
X138119047Y-128832619D01*
X138004761Y-128832619D01*
X137852380Y-128794523D01*
X137776190Y-128756428D01*
X137700000Y-128680238D01*
X137661904Y-128565952D01*
X137661904Y-128489761D01*
X137700000Y-128375476D01*
X137738095Y-128337380D01*
X138423809Y-128032619D02*
X138461904Y-127918333D01*
X138461904Y-127727857D01*
X138423809Y-127651666D01*
X138385714Y-127613571D01*
X138309523Y-127575476D01*
X138233333Y-127575476D01*
X138157142Y-127613571D01*
X138119047Y-127651666D01*
X138080952Y-127727857D01*
X138042857Y-127880238D01*
X138004761Y-127956428D01*
X137966666Y-127994523D01*
X137890476Y-128032619D01*
X137814285Y-128032619D01*
X137738095Y-127994523D01*
X137700000Y-127956428D01*
X137661904Y-127880238D01*
X137661904Y-127689761D01*
X137700000Y-127575476D01*
X138461904Y-127232619D02*
X137661904Y-127232619D01*
X138461904Y-126775476D01*
X137661904Y-126775476D01*
X138423809Y-126432619D02*
X138461904Y-126318333D01*
X138461904Y-126127857D01*
X138423809Y-126051666D01*
X138385714Y-126013571D01*
X138309523Y-125975476D01*
X138233333Y-125975476D01*
X138157142Y-126013571D01*
X138119047Y-126051666D01*
X138080952Y-126127857D01*
X138042857Y-126280238D01*
X138004761Y-126356428D01*
X137966666Y-126394523D01*
X137890476Y-126432619D01*
X137814285Y-126432619D01*
X137738095Y-126394523D01*
X137700000Y-126356428D01*
X137661904Y-126280238D01*
X137661904Y-126089761D01*
X137700000Y-125975476D01*
D12*
X169361904Y-129179523D02*
X168561904Y-129179523D01*
X168638095Y-128836666D02*
X168600000Y-128798571D01*
X168561904Y-128722380D01*
X168561904Y-128531904D01*
X168600000Y-128455714D01*
X168638095Y-128417619D01*
X168714285Y-128379523D01*
X168790476Y-128379523D01*
X168904761Y-128417619D01*
X169361904Y-128874761D01*
X169361904Y-128379523D01*
X169285714Y-127579523D02*
X169323809Y-127617619D01*
X169361904Y-127731904D01*
X169361904Y-127808095D01*
X169323809Y-127922380D01*
X169247619Y-127998571D01*
X169171428Y-128036666D01*
X169019047Y-128074761D01*
X168904761Y-128074761D01*
X168752380Y-128036666D01*
X168676190Y-127998571D01*
X168600000Y-127922380D01*
X168561904Y-127808095D01*
X168561904Y-127731904D01*
X168600000Y-127617619D01*
X168638095Y-127579523D01*
D11*
X130861904Y-73670714D02*
X131661904Y-73480238D01*
X131090476Y-73327857D01*
X131661904Y-73175476D01*
X130861904Y-72985000D01*
X131661904Y-72223095D02*
X131280952Y-72489761D01*
X131661904Y-72680238D02*
X130861904Y-72680238D01*
X130861904Y-72375476D01*
X130900000Y-72299285D01*
X130938095Y-72261190D01*
X131014285Y-72223095D01*
X131128571Y-72223095D01*
X131204761Y-72261190D01*
X131242857Y-72299285D01*
X131280952Y-72375476D01*
X131280952Y-72680238D01*
X131661904Y-71880238D02*
X130861904Y-71880238D01*
X130861904Y-71575476D01*
X130900000Y-71499285D01*
X130938095Y-71461190D01*
X131014285Y-71423095D01*
X131128571Y-71423095D01*
X131204761Y-71461190D01*
X131242857Y-71499285D01*
X131280952Y-71575476D01*
X131280952Y-71880238D01*
X131661904Y-71080238D02*
X130861904Y-71080238D01*
X131433333Y-70813571D01*
X130861904Y-70546904D01*
X131661904Y-70546904D01*
X138661904Y-72718333D02*
X138280952Y-72985000D01*
X138661904Y-73175476D02*
X137861904Y-73175476D01*
X137861904Y-72870714D01*
X137900000Y-72794524D01*
X137938095Y-72756429D01*
X138014285Y-72718333D01*
X138128571Y-72718333D01*
X138204761Y-72756429D01*
X138242857Y-72794524D01*
X138280952Y-72870714D01*
X138280952Y-73175476D01*
X138433333Y-72413572D02*
X138433333Y-72032619D01*
X138661904Y-72489762D02*
X137861904Y-72223095D01*
X138661904Y-71956429D01*
X138585714Y-71232619D02*
X138623809Y-71270714D01*
X138661904Y-71385000D01*
X138661904Y-71461191D01*
X138623809Y-71575476D01*
X138547619Y-71651667D01*
X138471428Y-71689762D01*
X138319047Y-71727857D01*
X138204761Y-71727857D01*
X138052380Y-71689762D01*
X137976190Y-71651667D01*
X137900000Y-71575476D01*
X137861904Y-71461191D01*
X137861904Y-71385000D01*
X137900000Y-71270714D01*
X137938095Y-71232619D01*
X138242857Y-70889762D02*
X138242857Y-70623095D01*
X138661904Y-70508810D02*
X138661904Y-70889762D01*
X137861904Y-70889762D01*
X137861904Y-70508810D01*
D12*
X178320476Y-71611904D02*
X178320476Y-70811904D01*
X178663333Y-71573809D02*
X178777619Y-71611904D01*
X178968095Y-71611904D01*
X179044285Y-71573809D01*
X179082380Y-71535714D01*
X179120476Y-71459523D01*
X179120476Y-71383333D01*
X179082380Y-71307142D01*
X179044285Y-71269047D01*
X178968095Y-71230952D01*
X178815714Y-71192857D01*
X178739523Y-71154761D01*
X178701428Y-71116666D01*
X178663333Y-71040476D01*
X178663333Y-70964285D01*
X178701428Y-70888095D01*
X178739523Y-70850000D01*
X178815714Y-70811904D01*
X179006190Y-70811904D01*
X179120476Y-70850000D01*
X179615714Y-70811904D02*
X179768095Y-70811904D01*
X179844285Y-70850000D01*
X179920476Y-70926190D01*
X179958571Y-71078571D01*
X179958571Y-71345238D01*
X179920476Y-71497619D01*
X179844285Y-71573809D01*
X179768095Y-71611904D01*
X179615714Y-71611904D01*
X179539523Y-71573809D01*
X179463333Y-71497619D01*
X179425238Y-71345238D01*
X179425238Y-71078571D01*
X179463333Y-70926190D01*
X179539523Y-70850000D01*
X179615714Y-70811904D01*
X180682380Y-71611904D02*
X180301428Y-71611904D01*
X180301428Y-70811904D01*
X180910952Y-71383333D02*
X181291904Y-71383333D01*
X180834761Y-71611904D02*
X181101428Y-70811904D01*
X181368095Y-71611904D01*
X181520476Y-70811904D02*
X181977619Y-70811904D01*
X181749047Y-71611904D02*
X181749047Y-70811904D01*
X182396666Y-70811904D02*
X182549047Y-70811904D01*
X182625238Y-70850000D01*
X182701428Y-70926190D01*
X182739523Y-71078571D01*
X182739523Y-71345238D01*
X182701428Y-71497619D01*
X182625238Y-71573809D01*
X182549047Y-71611904D01*
X182396666Y-71611904D01*
X182320476Y-71573809D01*
X182244285Y-71497619D01*
X182206190Y-71345238D01*
X182206190Y-71078571D01*
X182244285Y-70926190D01*
X182320476Y-70850000D01*
X182396666Y-70811904D01*
X183539523Y-71611904D02*
X183272857Y-71230952D01*
X183082380Y-71611904D02*
X183082380Y-70811904D01*
X183387142Y-70811904D01*
X183463333Y-70850000D01*
X183501428Y-70888095D01*
X183539523Y-70964285D01*
X183539523Y-71078571D01*
X183501428Y-71154761D01*
X183463333Y-71192857D01*
X183387142Y-71230952D01*
X183082380Y-71230952D01*
X177061904Y-91793809D02*
X177061904Y-91336666D01*
X177861904Y-91565238D02*
X177061904Y-91565238D01*
X177861904Y-91070000D02*
X177061904Y-91070000D01*
X177442857Y-91070000D02*
X177442857Y-90612857D01*
X177861904Y-90612857D02*
X177061904Y-90612857D01*
X177861904Y-89774761D02*
X177480952Y-90041428D01*
X177861904Y-90231904D02*
X177061904Y-90231904D01*
X177061904Y-89927142D01*
X177100000Y-89850952D01*
X177138095Y-89812857D01*
X177214285Y-89774761D01*
X177328571Y-89774761D01*
X177404761Y-89812857D01*
X177442857Y-89850952D01*
X177480952Y-89927142D01*
X177480952Y-90231904D01*
X177061904Y-89279523D02*
X177061904Y-89127142D01*
X177100000Y-89050952D01*
X177176190Y-88974761D01*
X177328571Y-88936666D01*
X177595238Y-88936666D01*
X177747619Y-88974761D01*
X177823809Y-89050952D01*
X177861904Y-89127142D01*
X177861904Y-89279523D01*
X177823809Y-89355714D01*
X177747619Y-89431904D01*
X177595238Y-89470000D01*
X177328571Y-89470000D01*
X177176190Y-89431904D01*
X177100000Y-89355714D01*
X177061904Y-89279523D01*
X177061904Y-88708095D02*
X177061904Y-88250952D01*
X177861904Y-88479523D02*
X177061904Y-88479523D01*
X177061904Y-88098571D02*
X177061904Y-87641428D01*
X177861904Y-87870000D02*
X177061904Y-87870000D01*
X177861904Y-86993809D02*
X177861904Y-87374761D01*
X177061904Y-87374761D01*
X177442857Y-86727142D02*
X177442857Y-86460476D01*
X177861904Y-86346190D02*
X177861904Y-86727142D01*
X177061904Y-86727142D01*
X177061904Y-86346190D01*
D11*
X176583333Y-79366666D02*
X176550000Y-79400000D01*
X176450000Y-79466666D01*
X176383333Y-79500000D01*
X176283333Y-79533333D01*
X176116666Y-79566666D01*
X175983333Y-79566666D01*
X175816666Y-79533333D01*
X175716666Y-79500000D01*
X175650000Y-79466666D01*
X175550000Y-79400000D01*
X175516666Y-79366666D01*
X175850000Y-79166666D02*
X176316666Y-79000000D01*
X175850000Y-78833333D01*
X176316666Y-78200000D02*
X176316666Y-78600000D01*
X176316666Y-78400000D02*
X175616666Y-78400000D01*
X175716666Y-78466666D01*
X175783333Y-78533333D01*
X175816666Y-78600000D01*
X176250000Y-77900000D02*
X176283333Y-77866666D01*
X176316666Y-77900000D01*
X176283333Y-77933333D01*
X176250000Y-77900000D01*
X176316666Y-77900000D01*
X175616666Y-77433333D02*
X175616666Y-77366666D01*
X175650000Y-77300000D01*
X175683333Y-77266666D01*
X175750000Y-77233333D01*
X175883333Y-77200000D01*
X176050000Y-77200000D01*
X176183333Y-77233333D01*
X176250000Y-77266666D01*
X176283333Y-77300000D01*
X176316666Y-77366666D01*
X176316666Y-77433333D01*
X176283333Y-77500000D01*
X176250000Y-77533333D01*
X176183333Y-77566666D01*
X176050000Y-77600000D01*
X175883333Y-77600000D01*
X175750000Y-77566666D01*
X175683333Y-77533333D01*
X175650000Y-77500000D01*
X175616666Y-77433333D01*
X175616666Y-76233333D02*
X175616666Y-76166666D01*
X175650000Y-76100000D01*
X175683333Y-76066666D01*
X175750000Y-76033333D01*
X175883333Y-76000000D01*
X176050000Y-76000000D01*
X176183333Y-76033333D01*
X176250000Y-76066666D01*
X176283333Y-76100000D01*
X176316666Y-76166666D01*
X176316666Y-76233333D01*
X176283333Y-76300000D01*
X176250000Y-76333333D01*
X176183333Y-76366666D01*
X176050000Y-76400000D01*
X175883333Y-76400000D01*
X175750000Y-76366666D01*
X175683333Y-76333333D01*
X175650000Y-76300000D01*
X175616666Y-76233333D01*
X176316666Y-75666666D02*
X176316666Y-75533333D01*
X176283333Y-75466666D01*
X176250000Y-75433333D01*
X176150000Y-75366666D01*
X176016666Y-75333333D01*
X175750000Y-75333333D01*
X175683333Y-75366666D01*
X175650000Y-75400000D01*
X175616666Y-75466666D01*
X175616666Y-75600000D01*
X175650000Y-75666666D01*
X175683333Y-75700000D01*
X175750000Y-75733333D01*
X175916666Y-75733333D01*
X175983333Y-75700000D01*
X176016666Y-75666666D01*
X176050000Y-75600000D01*
X176050000Y-75466666D01*
X176016666Y-75400000D01*
X175983333Y-75366666D01*
X175916666Y-75333333D01*
X175583333Y-74533333D02*
X176483333Y-75133333D01*
X175683333Y-74333333D02*
X175650000Y-74300000D01*
X175616666Y-74233333D01*
X175616666Y-74066666D01*
X175650000Y-74000000D01*
X175683333Y-73966666D01*
X175750000Y-73933333D01*
X175816666Y-73933333D01*
X175916666Y-73966666D01*
X176316666Y-74366666D01*
X176316666Y-73933333D01*
X175683333Y-73666666D02*
X175650000Y-73633333D01*
X175616666Y-73566666D01*
X175616666Y-73400000D01*
X175650000Y-73333333D01*
X175683333Y-73300000D01*
X175750000Y-73266666D01*
X175816666Y-73266666D01*
X175916666Y-73300000D01*
X176316666Y-73700000D01*
X176316666Y-73266666D01*
X176583333Y-73033333D02*
X176550000Y-73000000D01*
X176450000Y-72933333D01*
X176383333Y-72900000D01*
X176283333Y-72866666D01*
X176116666Y-72833333D01*
X175983333Y-72833333D01*
X175816666Y-72866666D01*
X175716666Y-72900000D01*
X175650000Y-72933333D01*
X175550000Y-73000000D01*
X175516666Y-73033333D01*
X135161904Y-73594523D02*
X134361904Y-73594523D01*
X134933333Y-73327857D01*
X134361904Y-73061190D01*
X135161904Y-73061190D01*
X135161904Y-72223095D02*
X134780952Y-72489761D01*
X135161904Y-72680238D02*
X134361904Y-72680238D01*
X134361904Y-72375476D01*
X134400000Y-72299285D01*
X134438095Y-72261190D01*
X134514285Y-72223095D01*
X134628571Y-72223095D01*
X134704761Y-72261190D01*
X134742857Y-72299285D01*
X134780952Y-72375476D01*
X134780952Y-72680238D01*
X135161904Y-71880238D02*
X134361904Y-71880238D01*
X134361904Y-71575476D01*
X134400000Y-71499285D01*
X134438095Y-71461190D01*
X134514285Y-71423095D01*
X134628571Y-71423095D01*
X134704761Y-71461190D01*
X134742857Y-71499285D01*
X134780952Y-71575476D01*
X134780952Y-71880238D01*
X135161904Y-71080238D02*
X134361904Y-71080238D01*
X134933333Y-70813571D01*
X134361904Y-70546904D01*
X135161904Y-70546904D01*
X144861904Y-73258809D02*
X144861904Y-72801666D01*
X145661904Y-73030238D02*
X144861904Y-73030238D01*
X145661904Y-72535000D02*
X144861904Y-72535000D01*
X145433333Y-72268333D01*
X144861904Y-72001666D01*
X145661904Y-72001666D01*
X145661904Y-71620714D02*
X144861904Y-71620714D01*
X144861904Y-71315952D01*
X144900000Y-71239761D01*
X144938095Y-71201666D01*
X145014285Y-71163571D01*
X145128571Y-71163571D01*
X145204761Y-71201666D01*
X145242857Y-71239761D01*
X145280952Y-71315952D01*
X145280952Y-71620714D01*
X144938095Y-70858809D02*
X144900000Y-70820714D01*
X144861904Y-70744523D01*
X144861904Y-70554047D01*
X144900000Y-70477857D01*
X144938095Y-70439761D01*
X145014285Y-70401666D01*
X145090476Y-70401666D01*
X145204761Y-70439761D01*
X145661904Y-70896904D01*
X145661904Y-70401666D01*
D15*
%TO.C,U2*%
X117261000Y-83942200D02*
X121261000Y-83942200D01*
X121261000Y-83942200D02*
X121261000Y-89942200D01*
X121261000Y-89942200D02*
X117261000Y-89942200D01*
X117261000Y-89942200D02*
X117261000Y-83942200D01*
D16*
X165370000Y-77913000D02*
X169180000Y-81723000D01*
X169180000Y-91883000D01*
X165370000Y-95693000D01*
X165370000Y-99503000D01*
X119523000Y-99503000D01*
X117491000Y-97471000D01*
X117491000Y-92213200D01*
X118761000Y-90943200D01*
X118761000Y-82942200D01*
X117491000Y-81672200D01*
X117491000Y-76389000D01*
X119650000Y-74230000D01*
X165370000Y-74230000D01*
X165370000Y-77913000D01*
D15*
%TO.C,J2*%
X176940000Y-70235000D02*
X184560000Y-70235000D01*
X178750000Y-64275000D02*
X176950000Y-64275000D01*
X181250000Y-65025000D02*
X181250000Y-64275000D01*
X184560000Y-64265000D02*
X176940000Y-64265000D01*
X184550000Y-64275000D02*
X182750000Y-64275000D01*
X184560000Y-70235000D02*
X184560000Y-64265000D01*
X176940000Y-64265000D02*
X176940000Y-70235000D01*
X180250000Y-64275000D02*
X180250000Y-65025000D01*
X183800000Y-69475000D02*
X180750000Y-69475000D01*
X177900000Y-63975000D02*
X176650000Y-63975000D01*
X183800000Y-66525000D02*
X183800000Y-69475000D01*
X176650000Y-63975000D02*
X176650000Y-65225000D01*
X176950000Y-64275000D02*
X176950000Y-65025000D01*
X182750000Y-65025000D02*
X184550000Y-65025000D01*
X177700000Y-66525000D02*
X177700000Y-69475000D01*
X182750000Y-64275000D02*
X182750000Y-65025000D01*
X177700000Y-69475000D02*
X180750000Y-69475000D01*
X180250000Y-65025000D02*
X181250000Y-65025000D01*
X184550000Y-65025000D02*
X184550000Y-64275000D01*
X184550000Y-66525000D02*
X183800000Y-66525000D01*
X181250000Y-64275000D02*
X180250000Y-64275000D01*
X176950000Y-66525000D02*
X177700000Y-66525000D01*
X178750000Y-65025000D02*
X178750000Y-64275000D01*
X176950000Y-65025000D02*
X178750000Y-65025000D01*
%TO.C,J12*%
X187025000Y-125800000D02*
X187775000Y-125800000D01*
X187775000Y-127300000D02*
X187025000Y-127300000D01*
X187775000Y-119000000D02*
X187025000Y-119000000D01*
X187775000Y-129100000D02*
X187775000Y-127300000D01*
X187775000Y-122300000D02*
X187025000Y-122300000D01*
X187025000Y-120800000D02*
X187775000Y-120800000D01*
X186725000Y-128150000D02*
X186725000Y-129400000D01*
X189275000Y-129100000D02*
X189275000Y-128350000D01*
X186725000Y-129400000D02*
X187975000Y-129400000D01*
X187025000Y-122300000D02*
X187025000Y-125800000D01*
X187015000Y-118990000D02*
X187015000Y-129110000D01*
X187775000Y-120800000D02*
X187775000Y-119000000D01*
X189275000Y-128350000D02*
X192225000Y-128350000D01*
X187015000Y-129110000D02*
X192985000Y-129110000D01*
X189275000Y-119750000D02*
X192225000Y-119750000D01*
X187025000Y-129100000D02*
X187775000Y-129100000D01*
X192225000Y-128350000D02*
X192225000Y-124050000D01*
X189275000Y-119000000D02*
X189275000Y-119750000D01*
X192985000Y-118990000D02*
X187015000Y-118990000D01*
X192985000Y-129110000D02*
X192985000Y-118990000D01*
X192225000Y-119750000D02*
X192225000Y-124050000D01*
X187025000Y-127300000D02*
X187025000Y-129100000D01*
X187025000Y-119000000D02*
X187025000Y-120800000D01*
X187775000Y-125800000D02*
X187775000Y-122300000D01*
%TO.C,J14*%
X189275000Y-92200000D02*
X192225000Y-92200000D01*
X187775000Y-93250000D02*
X187775000Y-91450000D01*
X186725000Y-100600000D02*
X186725000Y-101850000D01*
X189275000Y-100800000D02*
X192225000Y-100800000D01*
X187775000Y-91450000D02*
X187025000Y-91450000D01*
X187025000Y-98250000D02*
X187775000Y-98250000D01*
X187775000Y-98250000D02*
X187775000Y-94750000D01*
X187775000Y-99750000D02*
X187025000Y-99750000D01*
X187775000Y-94750000D02*
X187025000Y-94750000D01*
X187025000Y-94750000D02*
X187025000Y-98250000D01*
X186725000Y-101850000D02*
X187975000Y-101850000D01*
X192985000Y-91440000D02*
X187015000Y-91440000D01*
X187025000Y-91450000D02*
X187025000Y-93250000D01*
X187025000Y-93250000D02*
X187775000Y-93250000D01*
X192225000Y-100800000D02*
X192225000Y-96500000D01*
X187025000Y-99750000D02*
X187025000Y-101550000D01*
X187775000Y-101550000D02*
X187775000Y-99750000D01*
X192225000Y-92200000D02*
X192225000Y-96500000D01*
X189275000Y-101550000D02*
X189275000Y-100800000D01*
X187015000Y-91440000D02*
X187015000Y-101560000D01*
X187015000Y-101560000D02*
X192985000Y-101560000D01*
X187025000Y-101550000D02*
X187775000Y-101550000D01*
X189275000Y-91450000D02*
X189275000Y-92200000D01*
X192985000Y-101560000D02*
X192985000Y-91440000D01*
%TO.C,J6*%
X169875000Y-128150000D02*
X169875000Y-129400000D01*
X170925000Y-129100000D02*
X170925000Y-127300000D01*
X175375000Y-128350000D02*
X175375000Y-122800000D01*
X170175000Y-119800000D02*
X170175000Y-125800000D01*
X176135000Y-129110000D02*
X176135000Y-116490000D01*
X170175000Y-127300000D02*
X170175000Y-129100000D01*
X172425000Y-116500000D02*
X172425000Y-117250000D01*
X175375000Y-117250000D02*
X175375000Y-122800000D01*
X169875000Y-129400000D02*
X171125000Y-129400000D01*
X170175000Y-129100000D02*
X170925000Y-129100000D01*
X170175000Y-118300000D02*
X170925000Y-118300000D01*
X172425000Y-129100000D02*
X172425000Y-128350000D01*
X170175000Y-116500000D02*
X170175000Y-118300000D01*
X170165000Y-116490000D02*
X170165000Y-129110000D01*
X170925000Y-118300000D02*
X170925000Y-116500000D01*
X176135000Y-116490000D02*
X170165000Y-116490000D01*
X170925000Y-125800000D02*
X170925000Y-119800000D01*
X170925000Y-127300000D02*
X170175000Y-127300000D01*
X172425000Y-117250000D02*
X175375000Y-117250000D01*
X170925000Y-116500000D02*
X170175000Y-116500000D01*
X170925000Y-119800000D02*
X170175000Y-119800000D01*
X170165000Y-129110000D02*
X176135000Y-129110000D01*
X170175000Y-125800000D02*
X170925000Y-125800000D01*
X172425000Y-128350000D02*
X175375000Y-128350000D01*
%TO.C,J15*%
X192985000Y-116585000D02*
X192985000Y-103965000D01*
X187775000Y-113275000D02*
X187775000Y-107275000D01*
X187025000Y-116575000D02*
X187775000Y-116575000D01*
X189275000Y-104725000D02*
X192225000Y-104725000D01*
X187015000Y-116585000D02*
X192985000Y-116585000D01*
X189275000Y-115825000D02*
X192225000Y-115825000D01*
X186725000Y-115625000D02*
X186725000Y-116875000D01*
X187015000Y-103965000D02*
X187015000Y-116585000D01*
X187775000Y-105775000D02*
X187775000Y-103975000D01*
X187025000Y-103975000D02*
X187025000Y-105775000D01*
X187025000Y-107275000D02*
X187025000Y-113275000D01*
X192985000Y-103965000D02*
X187015000Y-103965000D01*
X189275000Y-116575000D02*
X189275000Y-115825000D01*
X187025000Y-105775000D02*
X187775000Y-105775000D01*
X186725000Y-116875000D02*
X187975000Y-116875000D01*
X187775000Y-103975000D02*
X187025000Y-103975000D01*
X192225000Y-115825000D02*
X192225000Y-110275000D01*
X192225000Y-104725000D02*
X192225000Y-110275000D01*
X187025000Y-114775000D02*
X187025000Y-116575000D01*
X187775000Y-114775000D02*
X187025000Y-114775000D01*
X187775000Y-107275000D02*
X187025000Y-107275000D01*
X187025000Y-113275000D02*
X187775000Y-113275000D01*
X187775000Y-116575000D02*
X187775000Y-114775000D01*
X189275000Y-103975000D02*
X189275000Y-104725000D01*
%TO.C,J10*%
X178525000Y-114937500D02*
X179275000Y-114937500D01*
X179275000Y-111637500D02*
X179275000Y-108137500D01*
X178525000Y-111637500D02*
X179275000Y-111637500D01*
X178225000Y-113987500D02*
X178225000Y-115237500D01*
X179275000Y-108137500D02*
X178525000Y-108137500D01*
X180775000Y-114187500D02*
X183725000Y-114187500D01*
X178515000Y-104827500D02*
X178515000Y-114947500D01*
X178225000Y-115237500D02*
X179475000Y-115237500D01*
X178525000Y-108137500D02*
X178525000Y-111637500D01*
X178525000Y-104837500D02*
X178525000Y-106637500D01*
X179275000Y-113137500D02*
X178525000Y-113137500D01*
X180775000Y-104837500D02*
X180775000Y-105587500D01*
X183725000Y-114187500D02*
X183725000Y-109887500D01*
X178515000Y-114947500D02*
X184485000Y-114947500D01*
X183725000Y-105587500D02*
X183725000Y-109887500D01*
X178525000Y-113137500D02*
X178525000Y-114937500D01*
X180775000Y-114937500D02*
X180775000Y-114187500D01*
X184485000Y-104827500D02*
X178515000Y-104827500D01*
X179275000Y-114937500D02*
X179275000Y-113137500D01*
X179275000Y-106637500D02*
X179275000Y-104837500D01*
X179275000Y-104837500D02*
X178525000Y-104837500D01*
X178525000Y-106637500D02*
X179275000Y-106637500D01*
X184485000Y-114947500D02*
X184485000Y-104827500D01*
X180775000Y-105587500D02*
X183725000Y-105587500D01*
%TO.C,SW1*%
X159237500Y-129280000D02*
X157884167Y-129280000D01*
X159237500Y-131940000D02*
X157884167Y-131940000D01*
X162397500Y-134685000D02*
X162397500Y-133302000D01*
X159237500Y-131820000D02*
X157884167Y-131820000D01*
X159237500Y-129520000D02*
X157884167Y-129520000D01*
X159237500Y-129040000D02*
X157884167Y-129040000D01*
X157884167Y-132660000D02*
X157884167Y-131390000D01*
X159237500Y-129160000D02*
X157884167Y-129160000D01*
X159237500Y-131460000D02*
X157884167Y-131460000D01*
X159237500Y-129640000D02*
X157884167Y-129640000D01*
X159237500Y-131700000D02*
X157884167Y-131700000D01*
X162157500Y-134445000D02*
X162157500Y-127065000D01*
X159237500Y-132660000D02*
X159237500Y-131390000D01*
X155177500Y-131390000D02*
X155177500Y-132660000D01*
X162397500Y-134685000D02*
X161013500Y-134685000D01*
X159237500Y-128920000D02*
X157884167Y-128920000D01*
X159237500Y-129400000D02*
X157884167Y-129400000D01*
X159237500Y-132180000D02*
X157884167Y-132180000D01*
X159237500Y-128850000D02*
X155177500Y-128850000D01*
X159237500Y-131390000D02*
X155177500Y-131390000D01*
X159237500Y-130120000D02*
X159237500Y-128850000D01*
X162157500Y-127065000D02*
X152257500Y-127065000D01*
X155177500Y-132660000D02*
X159237500Y-132660000D01*
X159237500Y-131580000D02*
X157884167Y-131580000D01*
X159237500Y-132540000D02*
X157884167Y-132540000D01*
X159237500Y-132420000D02*
X157884167Y-132420000D01*
X159237500Y-132060000D02*
X157884167Y-132060000D01*
X162157500Y-134445000D02*
X152257500Y-134445000D01*
X155177500Y-128850000D02*
X155177500Y-130120000D01*
X159237500Y-129760000D02*
X157884167Y-129760000D01*
X159237500Y-130000000D02*
X157884167Y-130000000D01*
X152257500Y-134445000D02*
X152257500Y-127065000D01*
X159237500Y-132300000D02*
X157884167Y-132300000D01*
X155177500Y-130120000D02*
X159237500Y-130120000D01*
X157884167Y-130120000D02*
X157884167Y-128850000D01*
X159237500Y-129880000D02*
X157884167Y-129880000D01*
%TO.C,A1*%
X155380000Y-109770000D02*
X119820000Y-109770000D01*
X119820000Y-122470000D02*
X119820000Y-125140000D01*
X155380000Y-107100000D02*
X117150000Y-107100000D01*
X157920000Y-122470000D02*
X157920000Y-125140000D01*
X157920000Y-109770000D02*
X157920000Y-107100000D01*
X155380000Y-109770000D02*
X155380000Y-107100000D01*
X117150000Y-107100000D02*
X117150000Y-125140000D01*
X160590000Y-125140000D02*
X160590000Y-107100000D01*
X119820000Y-109770000D02*
X119820000Y-107100000D01*
X155380000Y-109770000D02*
X157920000Y-109770000D01*
X157920000Y-122470000D02*
X119820000Y-122470000D01*
X117150000Y-125140000D02*
X160590000Y-125140000D01*
X160590000Y-107100000D02*
X157920000Y-107100000D01*
%TO.C,J8*%
X178600000Y-129100000D02*
X179350000Y-129100000D01*
X180850000Y-117250000D02*
X183800000Y-117250000D01*
X179350000Y-129100000D02*
X179350000Y-127300000D01*
X179350000Y-118300000D02*
X179350000Y-116500000D01*
X179350000Y-116500000D02*
X178600000Y-116500000D01*
X180850000Y-116500000D02*
X180850000Y-117250000D01*
X179350000Y-127300000D02*
X178600000Y-127300000D01*
X179350000Y-125800000D02*
X179350000Y-119800000D01*
X183800000Y-128350000D02*
X183800000Y-122800000D01*
X178300000Y-129400000D02*
X179550000Y-129400000D01*
X180850000Y-128350000D02*
X183800000Y-128350000D01*
X178300000Y-128150000D02*
X178300000Y-129400000D01*
X180850000Y-129100000D02*
X180850000Y-128350000D01*
X178590000Y-129110000D02*
X184560000Y-129110000D01*
X184560000Y-116490000D02*
X178590000Y-116490000D01*
X183800000Y-117250000D02*
X183800000Y-122800000D01*
X178600000Y-118300000D02*
X179350000Y-118300000D01*
X178600000Y-127300000D02*
X178600000Y-129100000D01*
X184560000Y-129110000D02*
X184560000Y-116490000D01*
X178590000Y-116490000D02*
X178590000Y-129110000D01*
X179350000Y-119800000D02*
X178600000Y-119800000D01*
X178600000Y-125800000D02*
X179350000Y-125800000D01*
X178600000Y-119800000D02*
X178600000Y-125800000D01*
X178600000Y-116500000D02*
X178600000Y-118300000D01*
%TO.C,J3*%
X179275000Y-75650000D02*
X178525000Y-75650000D01*
X184485000Y-79960000D02*
X184485000Y-72340000D01*
X184485000Y-72340000D02*
X178515000Y-72340000D01*
X179275000Y-78150000D02*
X178525000Y-78150000D01*
X178525000Y-72350000D02*
X178525000Y-74150000D01*
X178525000Y-74150000D02*
X179275000Y-74150000D01*
X179275000Y-74150000D02*
X179275000Y-72350000D01*
X183725000Y-73100000D02*
X183725000Y-76150000D01*
X178525000Y-79950000D02*
X179275000Y-79950000D01*
X178525000Y-78150000D02*
X178525000Y-79950000D01*
X178525000Y-75650000D02*
X178525000Y-76650000D01*
X180775000Y-79950000D02*
X180775000Y-79200000D01*
X180775000Y-72350000D02*
X180775000Y-73100000D01*
X178225000Y-80250000D02*
X179475000Y-80250000D01*
X183725000Y-79200000D02*
X183725000Y-76150000D01*
X179275000Y-79950000D02*
X179275000Y-78150000D01*
X178525000Y-76650000D02*
X179275000Y-76650000D01*
X178515000Y-72340000D02*
X178515000Y-79960000D01*
X178515000Y-79960000D02*
X184485000Y-79960000D01*
X179275000Y-72350000D02*
X178525000Y-72350000D01*
X178225000Y-79000000D02*
X178225000Y-80250000D01*
X180775000Y-73100000D02*
X183725000Y-73100000D01*
X179275000Y-76650000D02*
X179275000Y-75650000D01*
X180775000Y-79200000D02*
X183725000Y-79200000D01*
D17*
%TO.C,J16*%
X150348120Y-129401480D02*
X150348120Y-135599080D01*
X150348120Y-135599080D02*
X150348120Y-136399180D01*
X129352480Y-136399180D02*
X129352480Y-135599080D01*
X150348120Y-136399180D02*
X129352480Y-136399180D01*
X150348120Y-135599080D02*
X129352480Y-135599080D01*
X129352480Y-129401480D02*
X150348120Y-129401480D01*
X129352480Y-135599080D02*
X129352480Y-129401480D01*
D15*
%TO.C,J9*%
X180775000Y-103275000D02*
X180775000Y-102525000D01*
X179275000Y-96475000D02*
X178525000Y-96475000D01*
X179275000Y-99975000D02*
X179275000Y-96475000D01*
X183725000Y-102525000D02*
X183725000Y-98225000D01*
X178525000Y-103275000D02*
X179275000Y-103275000D01*
X180775000Y-102525000D02*
X183725000Y-102525000D01*
X183725000Y-93925000D02*
X183725000Y-98225000D01*
X180775000Y-93925000D02*
X183725000Y-93925000D01*
X184485000Y-93165000D02*
X178515000Y-93165000D01*
X178225000Y-102325000D02*
X178225000Y-103575000D01*
X178525000Y-101475000D02*
X178525000Y-103275000D01*
X180775000Y-93175000D02*
X180775000Y-93925000D01*
X184485000Y-103285000D02*
X184485000Y-93165000D01*
X179275000Y-103275000D02*
X179275000Y-101475000D01*
X178525000Y-99975000D02*
X179275000Y-99975000D01*
X179275000Y-93175000D02*
X178525000Y-93175000D01*
X179275000Y-94975000D02*
X179275000Y-93175000D01*
X178525000Y-96475000D02*
X178525000Y-99975000D01*
X179275000Y-101475000D02*
X178525000Y-101475000D01*
X178525000Y-94975000D02*
X179275000Y-94975000D01*
X178525000Y-93175000D02*
X178525000Y-94975000D01*
X178225000Y-103575000D02*
X179475000Y-103575000D01*
X178515000Y-93165000D02*
X178515000Y-103285000D01*
X178515000Y-103285000D02*
X184485000Y-103285000D01*
%TO.C,J5*%
X180775000Y-81512500D02*
X180775000Y-82262500D01*
X178525000Y-88312500D02*
X179275000Y-88312500D01*
X178525000Y-91612500D02*
X179275000Y-91612500D01*
X179275000Y-89812500D02*
X178525000Y-89812500D01*
X179275000Y-84812500D02*
X178525000Y-84812500D01*
X178225000Y-90662500D02*
X178225000Y-91912500D01*
X178515000Y-81502500D02*
X178515000Y-91622500D01*
X184485000Y-91622500D02*
X184485000Y-81502500D01*
X183725000Y-82262500D02*
X183725000Y-86562500D01*
X178525000Y-81512500D02*
X178525000Y-83312500D01*
X179275000Y-91612500D02*
X179275000Y-89812500D01*
X180775000Y-91612500D02*
X180775000Y-90862500D01*
X179275000Y-83312500D02*
X179275000Y-81512500D01*
X183725000Y-90862500D02*
X183725000Y-86562500D01*
X180775000Y-82262500D02*
X183725000Y-82262500D01*
X179275000Y-88312500D02*
X179275000Y-84812500D01*
X178515000Y-91622500D02*
X184485000Y-91622500D01*
X178525000Y-89812500D02*
X178525000Y-91612500D01*
X184485000Y-81502500D02*
X178515000Y-81502500D01*
X179275000Y-81512500D02*
X178525000Y-81512500D01*
X178525000Y-83312500D02*
X179275000Y-83312500D01*
X178225000Y-91912500D02*
X179475000Y-91912500D01*
X180775000Y-90862500D02*
X183725000Y-90862500D01*
X178525000Y-84812500D02*
X178525000Y-88312500D01*
%TO.C,J1*%
X166450000Y-66475000D02*
X166450000Y-69425000D01*
X175050000Y-69425000D02*
X170750000Y-69425000D01*
X166450000Y-69425000D02*
X170750000Y-69425000D01*
X175810000Y-70185000D02*
X175810000Y-64215000D01*
X165400000Y-63925000D02*
X165400000Y-65175000D01*
X166650000Y-63925000D02*
X165400000Y-63925000D01*
X165700000Y-66475000D02*
X166450000Y-66475000D01*
X165700000Y-64975000D02*
X167500000Y-64975000D01*
X175810000Y-64215000D02*
X165690000Y-64215000D01*
X165700000Y-64225000D02*
X165700000Y-64975000D01*
X167500000Y-64225000D02*
X165700000Y-64225000D01*
X167500000Y-64975000D02*
X167500000Y-64225000D01*
X172500000Y-64225000D02*
X169000000Y-64225000D01*
X175800000Y-66475000D02*
X175050000Y-66475000D01*
X172500000Y-64975000D02*
X172500000Y-64225000D01*
X175800000Y-64225000D02*
X174000000Y-64225000D01*
X165690000Y-70185000D02*
X175810000Y-70185000D01*
X174000000Y-64225000D02*
X174000000Y-64975000D01*
X169000000Y-64225000D02*
X169000000Y-64975000D01*
X169000000Y-64975000D02*
X172500000Y-64975000D01*
X175800000Y-64975000D02*
X175800000Y-64225000D01*
X175050000Y-66475000D02*
X175050000Y-69425000D01*
X165690000Y-64215000D02*
X165690000Y-70185000D01*
X174000000Y-64975000D02*
X175800000Y-64975000D01*
D17*
%TO.C,J17*%
X150547820Y-63101120D02*
X150547820Y-63901220D01*
X129552180Y-63901220D02*
X129552180Y-63101120D01*
X129552180Y-63901220D02*
X150547820Y-63901220D01*
X129552180Y-70098820D02*
X129552180Y-63901220D01*
X150547820Y-63901220D02*
X150547820Y-70098820D01*
X150547820Y-70098820D02*
X129552180Y-70098820D01*
X129552180Y-63101120D02*
X150547820Y-63101120D01*
D15*
%TO.C,J13*%
X172425000Y-103450000D02*
X175375000Y-103450000D01*
X170175000Y-113500000D02*
X170175000Y-115300000D01*
X170175000Y-115300000D02*
X170925000Y-115300000D01*
X170175000Y-112000000D02*
X170925000Y-112000000D01*
X172425000Y-115300000D02*
X172425000Y-114550000D01*
X169875000Y-115600000D02*
X171125000Y-115600000D01*
X170175000Y-102700000D02*
X170175000Y-104500000D01*
X170925000Y-112000000D02*
X170925000Y-106000000D01*
X170925000Y-104500000D02*
X170925000Y-102700000D01*
X170925000Y-115300000D02*
X170925000Y-113500000D01*
X170165000Y-102690000D02*
X170165000Y-115310000D01*
X176135000Y-115310000D02*
X176135000Y-102690000D01*
X169875000Y-114350000D02*
X169875000Y-115600000D01*
X170175000Y-106000000D02*
X170175000Y-112000000D01*
X170925000Y-106000000D02*
X170175000Y-106000000D01*
X170925000Y-102700000D02*
X170175000Y-102700000D01*
X170925000Y-113500000D02*
X170175000Y-113500000D01*
X170165000Y-115310000D02*
X176135000Y-115310000D01*
X176135000Y-102690000D02*
X170165000Y-102690000D01*
X172425000Y-114550000D02*
X175375000Y-114550000D01*
X170175000Y-104500000D02*
X170925000Y-104500000D01*
X175375000Y-103450000D02*
X175375000Y-109000000D01*
X172425000Y-102700000D02*
X172425000Y-103450000D01*
X175375000Y-114550000D02*
X175375000Y-109000000D01*
%TD*%
M02*
