%TF.GenerationSoftware,KiCad,Pcbnew,(6.0.4-0)*%
%TF.CreationDate,2022-09-02T16:24:51+01:00*%
%TF.ProjectId,eChook Wireless Board,6543686f-6f6b-4205-9769-72656c657373,rev?*%
%TF.SameCoordinates,Original*%
%TF.FileFunction,Soldermask,Top*%
%TF.FilePolarity,Negative*%
%FSLAX46Y46*%
G04 Gerber Fmt 4.6, Leading zero omitted, Abs format (unit mm)*
G04 Created by KiCad (PCBNEW (6.0.4-0)) date 2022-09-02 16:24:51*
%MOMM*%
%LPD*%
G01*
G04 APERTURE LIST*
G04 Aperture macros list*
%AMRoundRect*
0 Rectangle with rounded corners*
0 $1 Rounding radius*
0 $2 $3 $4 $5 $6 $7 $8 $9 X,Y pos of 4 corners*
0 Add a 4 corners polygon primitive as box body*
4,1,4,$2,$3,$4,$5,$6,$7,$8,$9,$2,$3,0*
0 Add four circle primitives for the rounded corners*
1,1,$1+$1,$2,$3*
1,1,$1+$1,$4,$5*
1,1,$1+$1,$6,$7*
1,1,$1+$1,$8,$9*
0 Add four rect primitives between the rounded corners*
20,1,$1+$1,$2,$3,$4,$5,0*
20,1,$1+$1,$4,$5,$6,$7,0*
20,1,$1+$1,$6,$7,$8,$9,0*
20,1,$1+$1,$8,$9,$2,$3,0*%
G04 Aperture macros list end*
%ADD10R,1.498600X1.498600*%
%ADD11C,1.498600*%
%ADD12RoundRect,0.250000X-0.600000X-0.750000X0.600000X-0.750000X0.600000X0.750000X-0.600000X0.750000X0*%
%ADD13O,1.700000X2.000000*%
%ADD14RoundRect,0.250000X0.725000X-0.600000X0.725000X0.600000X-0.725000X0.600000X-0.725000X-0.600000X0*%
%ADD15O,1.950000X1.700000*%
%ADD16C,3.200000*%
%ADD17R,1.600000X1.600000*%
%ADD18O,1.600000X1.600000*%
%ADD19RoundRect,0.250000X0.750000X-0.600000X0.750000X0.600000X-0.750000X0.600000X-0.750000X-0.600000X0*%
%ADD20O,2.000000X1.700000*%
%ADD21RoundRect,0.101600X-1.016000X-1.016000X1.016000X-1.016000X1.016000X1.016000X-1.016000X1.016000X0*%
%ADD22C,2.235200*%
%ADD23RoundRect,0.250000X-0.600000X-0.725000X0.600000X-0.725000X0.600000X0.725000X-0.600000X0.725000X0*%
%ADD24O,1.700000X1.950000*%
%ADD25RoundRect,0.101600X1.016000X1.016000X-1.016000X1.016000X-1.016000X-1.016000X1.016000X-1.016000X0*%
%ADD26R,1.700000X1.700000*%
%ADD27O,1.700000X1.700000*%
%ADD28C,1.524000*%
%ADD29R,1.524000X1.524000*%
G04 APERTURE END LIST*
D10*
%TO.C,U2*%
X120920000Y-75500000D03*
D11*
X123460000Y-75500000D03*
X126000000Y-75500000D03*
X128540000Y-75500000D03*
X131080000Y-75500000D03*
X133620000Y-75500000D03*
X136160000Y-75500000D03*
X138700000Y-75500000D03*
X141240000Y-75500000D03*
X143780000Y-75500000D03*
X146320000Y-75500000D03*
X148860000Y-75500000D03*
X151400000Y-75500000D03*
X153940000Y-75500000D03*
X156480000Y-75500000D03*
X159020000Y-75500000D03*
X161560000Y-75500000D03*
X164100000Y-75500000D03*
X164100000Y-98233000D03*
X161560000Y-98233000D03*
X159020000Y-98233000D03*
X156480000Y-98233000D03*
X153940000Y-98233000D03*
X151400000Y-98233000D03*
X148860000Y-98233000D03*
X146320000Y-98233000D03*
X143780000Y-98233000D03*
X141240000Y-98233000D03*
X138700000Y-98233000D03*
X136160000Y-98233000D03*
X133620000Y-98233000D03*
X131080000Y-98233000D03*
X128540000Y-98233000D03*
X126000000Y-98233000D03*
X123460000Y-98233000D03*
D10*
X120920000Y-98233000D03*
%TD*%
D12*
%TO.C,J2*%
X179500000Y-66725000D03*
D13*
X182000000Y-66725000D03*
%TD*%
D14*
%TO.C,J12*%
X189475000Y-126550000D03*
D15*
X189475000Y-124050000D03*
X189475000Y-121550000D03*
%TD*%
D14*
%TO.C,J14*%
X189475000Y-99000000D03*
D15*
X189475000Y-96500000D03*
X189475000Y-94000000D03*
%TD*%
D14*
%TO.C,J6*%
X172625000Y-126550000D03*
D15*
X172625000Y-124050000D03*
X172625000Y-121550000D03*
X172625000Y-119050000D03*
%TD*%
D16*
%TO.C,A*%
X121500000Y-67000000D03*
%TD*%
D14*
%TO.C,J15*%
X189475000Y-114025000D03*
D15*
X189475000Y-111525000D03*
X189475000Y-109025000D03*
X189475000Y-106525000D03*
%TD*%
D16*
%TO.C,D*%
X190500000Y-132500000D03*
%TD*%
D14*
%TO.C,J10*%
X180975000Y-112387500D03*
D15*
X180975000Y-109887500D03*
X180975000Y-107387500D03*
%TD*%
D17*
%TO.C,SW1*%
X161017500Y-132025000D03*
D18*
X161017500Y-129485000D03*
X153397500Y-129485000D03*
X153397500Y-132025000D03*
%TD*%
D17*
%TO.C,A1*%
X156650000Y-108500000D03*
D18*
X154110000Y-108500000D03*
X151570000Y-108500000D03*
X149030000Y-108500000D03*
X146490000Y-108500000D03*
X143950000Y-108500000D03*
X141410000Y-108500000D03*
X138870000Y-108500000D03*
X136330000Y-108500000D03*
X133790000Y-108500000D03*
X131250000Y-108500000D03*
X128710000Y-108500000D03*
X126170000Y-108500000D03*
X123630000Y-108500000D03*
X121090000Y-108500000D03*
X121090000Y-123740000D03*
X123630000Y-123740000D03*
X126170000Y-123740000D03*
X128710000Y-123740000D03*
X131250000Y-123740000D03*
X133790000Y-123740000D03*
X136330000Y-123740000D03*
X138870000Y-123740000D03*
X141410000Y-123740000D03*
X143950000Y-123740000D03*
X146490000Y-123740000D03*
X149030000Y-123740000D03*
X151570000Y-123740000D03*
X154110000Y-123740000D03*
X156650000Y-123740000D03*
%TD*%
D16*
%TO.C,B*%
X190500000Y-67000000D03*
%TD*%
D14*
%TO.C,J8*%
X181050000Y-126550000D03*
D15*
X181050000Y-124050000D03*
X181050000Y-121550000D03*
X181050000Y-119050000D03*
%TD*%
D19*
%TO.C,J3*%
X180975000Y-77400000D03*
D20*
X180975000Y-74900000D03*
%TD*%
D21*
%TO.C,J16*%
X131100000Y-132800000D03*
D22*
X134597580Y-132800000D03*
X138097700Y-132800000D03*
X141597820Y-132800000D03*
X145097940Y-132800000D03*
X148598060Y-132800000D03*
%TD*%
D16*
%TO.C,C*%
X121500000Y-132500000D03*
%TD*%
D14*
%TO.C,J9*%
X180975000Y-100725000D03*
D15*
X180975000Y-98225000D03*
X180975000Y-95725000D03*
%TD*%
D14*
%TO.C,J5*%
X180975000Y-89062500D03*
D15*
X180975000Y-86562500D03*
X180975000Y-84062500D03*
%TD*%
D23*
%TO.C,J1*%
X168250000Y-66675000D03*
D24*
X170750000Y-66675000D03*
X173250000Y-66675000D03*
%TD*%
D25*
%TO.C,J17*%
X148800300Y-66700300D03*
D22*
X145302720Y-66700300D03*
X141802600Y-66700300D03*
X138302480Y-66700300D03*
X134802360Y-66700300D03*
X131302240Y-66700300D03*
%TD*%
D14*
%TO.C,J13*%
X172625000Y-112750000D03*
D15*
X172625000Y-110250000D03*
X172625000Y-107750000D03*
X172625000Y-105250000D03*
%TD*%
D26*
%TO.C,J7*%
X121440800Y-86498900D03*
D27*
X123980800Y-86498900D03*
X126520800Y-86498900D03*
X129060800Y-86498900D03*
X131600800Y-86498900D03*
X134140800Y-86498900D03*
X136680800Y-86498900D03*
X139220800Y-86498900D03*
X141760800Y-86498900D03*
X144300800Y-86498900D03*
X146840800Y-86498900D03*
X149380800Y-86498900D03*
X151920800Y-86498900D03*
X154460800Y-86498900D03*
X157000800Y-86498900D03*
%TD*%
D28*
%TO.C,U1*%
X151743700Y-121180000D03*
X151743700Y-111020000D03*
X149203700Y-121180000D03*
D29*
X144123700Y-121180000D03*
D28*
X146663700Y-121180000D03*
X154283700Y-121180000D03*
X156823700Y-121180000D03*
X149203700Y-111020000D03*
D29*
X144123700Y-111020000D03*
D28*
X146663700Y-111020000D03*
X154283700Y-111020000D03*
X156823700Y-111020000D03*
%TD*%
D26*
%TO.C,J4*%
X121440800Y-101499800D03*
D27*
X123980800Y-101499800D03*
X126520800Y-101499800D03*
X129060800Y-101499800D03*
X131600800Y-101499800D03*
X134140800Y-101499800D03*
X136680800Y-101499800D03*
X139220800Y-101499800D03*
X141760800Y-101499800D03*
X144300800Y-101499800D03*
X146840800Y-101499800D03*
X149380800Y-101499800D03*
X151920800Y-101499800D03*
X154460800Y-101499800D03*
X157000800Y-101499800D03*
%TD*%
M02*
