M48
; DRILL file {KiCad (6.0.4)} date Sat Sep 17 14:54:42 2022
; FORMAT={-:-/ absolute / inch / decimal}
; #@! TF.CreationDate,2022-09-17T14:54:42+01:00
; #@! TF.GenerationSoftware,Kicad,Pcbnew,(6.0.4)
; #@! TF.FileFunction,Plated,1,2,PTH
FMAT,2
INCH
; #@! TA.AperFunction,Plated,PTH,ViaDrill
T1C0.0157
; #@! TA.AperFunction,Plated,PTH,ComponentDrill
T2C0.0350
; #@! TA.AperFunction,Plated,PTH,ComponentDrill
T3C0.0374
; #@! TA.AperFunction,Plated,PTH,ComponentDrill
T4C0.0394
; #@! TA.AperFunction,Plated,PTH,ComponentDrill
T5C0.0400
; #@! TA.AperFunction,Plated,PTH,ComponentDrill
T6C0.0512
%
G90
G05
T1
X4.8425Y-2.8228
X4.8425Y-2.8622
X4.8622Y-3.5906
X4.8622Y-3.6299
X4.8819Y-2.8228
X4.8819Y-2.8622
X4.9016Y-3.5906
X4.9016Y-3.6299
X4.9409Y-5.0866
X4.9409Y-5.126
X4.9803Y-5.0866
X4.9803Y-5.126
X5.0116Y-4.4175
X5.2165Y-4.7244
X5.3346Y-3.7008
X5.7874Y-4.122
X5.7874Y-4.1614
X5.8071Y-3.7008
X5.8266Y-4.1609
X5.8268Y-4.122
X5.8465Y-4.5669
X5.8465Y-4.6457
X5.8858Y-3.5315
X5.8858Y-3.5709
X5.9252Y-3.5315
X5.9252Y-3.5709
X6.2598Y-4.2402
X6.2598Y-4.7047
X6.2598Y-4.811
X6.2598Y-4.8504
X6.2992Y-4.2008
X6.2992Y-4.811
X6.2992Y-4.8504
X6.3583Y-4.311
X6.3976Y-4.311
X6.4272Y-4.872
X6.5157Y-4.2323
X6.6339Y-3.7008
X6.6535Y-5.1654
X6.6535Y-5.2244
X6.6535Y-5.2835
X6.6561Y-4.5381
X6.6929Y-4.7047
X6.7913Y-3.7008
X6.8701Y-4.3307
X6.8701Y-4.3701
X6.8701Y-4.5079
X6.8701Y-4.5472
X6.8898Y-3.7008
X6.9006Y-3.9656
X6.9094Y-4.3307
X6.9094Y-4.3701
X6.9094Y-4.5079
X6.9094Y-4.5472
X6.9291Y-2.6063
X6.9291Y-2.6457
X6.9291Y-2.685
X6.9685Y-2.6063
X6.9685Y-2.6457
X6.9685Y-2.685
X6.9685Y-3.2756
X6.9685Y-3.315
X6.9685Y-3.3543
X7.0669Y-3.6299
X7.1063Y-3.6299
X7.1457Y-3.6299
X7.4409Y-4.0433
X7.4409Y-4.6339
X7.5Y-4.0433
X7.5Y-4.6339
X7.5591Y-4.0433
X7.5591Y-4.6339
T2
X4.7606Y-2.9724
X4.7606Y-3.8724
X4.8606Y-2.9724
X4.8606Y-3.8724
X4.9606Y-2.9724
X4.9606Y-3.8724
X5.0606Y-2.9724
X5.0606Y-3.8724
X5.1606Y-2.9724
X5.1606Y-3.8724
X5.2606Y-2.9724
X5.2606Y-3.8724
X5.3606Y-2.9724
X5.3606Y-3.8724
X5.4606Y-2.9724
X5.4606Y-3.8724
X5.5606Y-2.9724
X5.5606Y-3.8724
X5.6606Y-2.9724
X5.6606Y-3.8724
X5.7606Y-2.9724
X5.7606Y-3.8724
X5.8606Y-2.9724
X5.8606Y-3.8724
X5.9606Y-2.9724
X5.9606Y-3.8724
X6.0606Y-2.9724
X6.0606Y-3.8724
X6.1606Y-2.9724
X6.1606Y-3.8724
X6.2606Y-2.9724
X6.2606Y-3.8724
X6.3606Y-2.9724
X6.3606Y-3.8724
X6.4606Y-2.9724
X6.4606Y-3.8724
T3
X6.3189Y-5.1565
X6.4173Y-5.1565
X6.5157Y-5.1565
X6.624Y-2.625
X6.7224Y-2.625
X6.7963Y-4.1437
X6.7963Y-4.2421
X6.7963Y-4.3406
X6.7963Y-4.439
X6.7963Y-4.687
X6.7963Y-4.7854
X6.7963Y-4.8839
X6.7963Y-4.9823
X6.8209Y-2.625
X7.125Y-3.3095
X7.125Y-3.408
X7.125Y-3.5064
X7.125Y-3.7687
X7.125Y-3.8671
X7.125Y-3.9656
X7.125Y-4.2279
X7.125Y-4.3263
X7.125Y-4.4247
X7.128Y-4.687
X7.128Y-4.7854
X7.128Y-4.8839
X7.128Y-4.9823
X7.4596Y-3.7008
X7.4596Y-3.7992
X7.4596Y-3.8976
X7.4596Y-4.1939
X7.4596Y-4.2923
X7.4596Y-4.3907
X7.4596Y-4.4892
X7.4596Y-4.7854
X7.4596Y-4.8839
X7.4596Y-4.9823
T4
X4.7673Y-4.2717
X4.7673Y-4.8717
X4.7811Y-3.4055
X4.7811Y-3.9961
X4.8673Y-4.2717
X4.8673Y-4.8717
X4.8811Y-3.4055
X4.8811Y-3.9961
X4.9673Y-4.2717
X4.9673Y-4.8717
X4.9811Y-3.4055
X4.9811Y-3.9961
X5.0673Y-4.2717
X5.0673Y-4.8717
X5.0811Y-3.4055
X5.0811Y-3.9961
X5.1673Y-4.2717
X5.1673Y-4.8717
X5.1811Y-3.4055
X5.1811Y-3.9961
X5.2673Y-4.2717
X5.2673Y-4.8717
X5.2811Y-3.4055
X5.2811Y-3.9961
X5.3673Y-4.2717
X5.3673Y-4.8717
X5.3811Y-3.4055
X5.3811Y-3.9961
X5.4673Y-4.2717
X5.4673Y-4.8717
X5.4811Y-3.4055
X5.4811Y-3.9961
X5.5673Y-4.2717
X5.5673Y-4.8717
X5.5811Y-3.4055
X5.5811Y-3.9961
X5.6673Y-4.2717
X5.6673Y-4.8717
X5.6811Y-3.4055
X5.6811Y-3.9961
X5.7673Y-4.2717
X5.7673Y-4.8717
X5.7811Y-3.4055
X5.7811Y-3.9961
X5.8673Y-4.2717
X5.8673Y-4.8717
X5.8811Y-3.4055
X5.8811Y-3.9961
X5.9673Y-4.2717
X5.9673Y-4.8717
X5.9811Y-3.4055
X5.9811Y-3.9961
X6.0673Y-4.2717
X6.0673Y-4.8717
X6.0811Y-3.4055
X6.0811Y-3.9961
X6.1673Y-4.2717
X6.1673Y-4.8717
X6.1811Y-3.4055
X6.1811Y-3.9961
X7.0669Y-2.627
X7.125Y-2.9488
X7.125Y-3.0472
X7.1654Y-2.627
T5
X5.6742Y-4.3709
X5.6742Y-4.7709
X5.7742Y-4.3709
X5.7742Y-4.7709
X5.8742Y-4.3709
X5.8742Y-4.7709
X5.9742Y-4.3709
X5.9742Y-4.7709
X6.0742Y-4.3709
X6.0742Y-4.7709
X6.1742Y-4.3709
X6.1742Y-4.7709
T6
X5.0984Y-2.7047
X5.0984Y-5.1496
X5.2953Y-2.7047
X5.2953Y-5.1496
X5.4921Y-2.7047
X5.4921Y-5.1496
X5.689Y-2.7047
X5.689Y-5.1496
X5.8858Y-2.7047
X5.8858Y-5.1496
X6.0827Y-2.7047
X6.0827Y-5.1496
T0
M30
