%TF.GenerationSoftware,KiCad,Pcbnew,(6.0.4)*%
%TF.CreationDate,2022-09-17T14:54:46+01:00*%
%TF.ProjectId,eChook Wireless Board,6543686f-6f6b-4205-9769-72656c657373,rev?*%
%TF.SameCoordinates,Original*%
%TF.FileFunction,Legend,Bot*%
%TF.FilePolarity,Positive*%
%FSLAX46Y46*%
G04 Gerber Fmt 4.6, Leading zero omitted, Abs format (unit mm)*
G04 Created by KiCad (PCBNEW (6.0.4)) date 2022-09-17 14:54:46*
%MOMM*%
%LPD*%
G01*
G04 APERTURE LIST*
%ADD10C,0.250000*%
%ADD11C,0.150000*%
%ADD12C,0.127000*%
%ADD13C,0.177800*%
%ADD14C,0.120000*%
G04 APERTURE END LIST*
D10*
X157261904Y-119557142D02*
X157309523Y-119604761D01*
X157452380Y-119652380D01*
X157547619Y-119652380D01*
X157690476Y-119604761D01*
X157785714Y-119509523D01*
X157833333Y-119414285D01*
X157880952Y-119223809D01*
X157880952Y-119080952D01*
X157833333Y-118890476D01*
X157785714Y-118795238D01*
X157690476Y-118700000D01*
X157547619Y-118652380D01*
X157452380Y-118652380D01*
X157309523Y-118700000D01*
X157261904Y-118747619D01*
X156833333Y-119652380D02*
X156833333Y-118652380D01*
X156833333Y-119128571D02*
X156261904Y-119128571D01*
X156261904Y-119652380D02*
X156261904Y-118652380D01*
X155785714Y-119128571D02*
X155452380Y-119128571D01*
X155309523Y-119652380D02*
X155785714Y-119652380D01*
X155785714Y-118652380D01*
X155309523Y-118652380D01*
X154309523Y-119557142D02*
X154357142Y-119604761D01*
X154500000Y-119652380D01*
X154595238Y-119652380D01*
X154738095Y-119604761D01*
X154833333Y-119509523D01*
X154880952Y-119414285D01*
X154928571Y-119223809D01*
X154928571Y-119080952D01*
X154880952Y-118890476D01*
X154833333Y-118795238D01*
X154738095Y-118700000D01*
X154595238Y-118652380D01*
X154500000Y-118652380D01*
X154357142Y-118700000D01*
X154309523Y-118747619D01*
X153880952Y-119652380D02*
X153880952Y-118652380D01*
X153309523Y-119652380D02*
X153738095Y-119080952D01*
X153309523Y-118652380D02*
X153880952Y-119223809D01*
X151928571Y-118652380D02*
X151738095Y-118652380D01*
X151642857Y-118700000D01*
X151547619Y-118795238D01*
X151500000Y-118985714D01*
X151500000Y-119319047D01*
X151547619Y-119509523D01*
X151642857Y-119604761D01*
X151738095Y-119652380D01*
X151928571Y-119652380D01*
X152023809Y-119604761D01*
X152119047Y-119509523D01*
X152166666Y-119319047D01*
X152166666Y-118985714D01*
X152119047Y-118795238D01*
X152023809Y-118700000D01*
X151928571Y-118652380D01*
X150500000Y-119652380D02*
X150833333Y-119176190D01*
X151071428Y-119652380D02*
X151071428Y-118652380D01*
X150690476Y-118652380D01*
X150595238Y-118700000D01*
X150547619Y-118747619D01*
X150500000Y-118842857D01*
X150500000Y-118985714D01*
X150547619Y-119080952D01*
X150595238Y-119128571D01*
X150690476Y-119176190D01*
X151071428Y-119176190D01*
X150071428Y-119652380D02*
X150071428Y-118652380D01*
X149595238Y-119128571D02*
X149261904Y-119128571D01*
X149119047Y-119652380D02*
X149595238Y-119652380D01*
X149595238Y-118652380D01*
X149119047Y-118652380D01*
X148690476Y-119652380D02*
X148690476Y-118652380D01*
X148119047Y-119652380D01*
X148119047Y-118652380D01*
X147785714Y-118652380D02*
X147214285Y-118652380D01*
X147500000Y-119652380D02*
X147500000Y-118652380D01*
X146928571Y-119366666D02*
X146452380Y-119366666D01*
X147023809Y-119652380D02*
X146690476Y-118652380D01*
X146357142Y-119652380D01*
X146166666Y-118652380D02*
X145595238Y-118652380D01*
X145880952Y-119652380D02*
X145880952Y-118652380D01*
X145261904Y-119652380D02*
X145261904Y-118652380D01*
X144595238Y-118652380D02*
X144404761Y-118652380D01*
X144309523Y-118700000D01*
X144214285Y-118795238D01*
X144166666Y-118985714D01*
X144166666Y-119319047D01*
X144214285Y-119509523D01*
X144309523Y-119604761D01*
X144404761Y-119652380D01*
X144595238Y-119652380D01*
X144690476Y-119604761D01*
X144785714Y-119509523D01*
X144833333Y-119319047D01*
X144833333Y-118985714D01*
X144785714Y-118795238D01*
X144690476Y-118700000D01*
X144595238Y-118652380D01*
X143738095Y-119652380D02*
X143738095Y-118652380D01*
X143166666Y-119652380D01*
X143166666Y-118652380D01*
D11*
X159842785Y-111452380D02*
X160318976Y-111452380D01*
X160318976Y-110452380D01*
X159652309Y-110452380D02*
X159318976Y-111452380D01*
X158985642Y-110452380D01*
X148676118Y-114666666D02*
X149676118Y-115000000D01*
X148676118Y-115333333D01*
X149580880Y-116238095D02*
X149628499Y-116190476D01*
X149676118Y-116047619D01*
X149676118Y-115952380D01*
X149628499Y-115809523D01*
X149533261Y-115714285D01*
X149438023Y-115666666D01*
X149247547Y-115619047D01*
X149104690Y-115619047D01*
X148914214Y-115666666D01*
X148818976Y-115714285D01*
X148723738Y-115809523D01*
X148676118Y-115952380D01*
X148676118Y-116047619D01*
X148723738Y-116190476D01*
X148771357Y-116238095D01*
X149580880Y-117238095D02*
X149628499Y-117190476D01*
X149676118Y-117047619D01*
X149676118Y-116952380D01*
X149628499Y-116809523D01*
X149533261Y-116714285D01*
X149438023Y-116666666D01*
X149247547Y-116619047D01*
X149104690Y-116619047D01*
X148914214Y-116666666D01*
X148818976Y-116714285D01*
X148723738Y-116809523D01*
X148676118Y-116952380D01*
X148676118Y-117047619D01*
X148723738Y-117190476D01*
X148771357Y-117238095D01*
X151223738Y-115238095D02*
X151176118Y-115142857D01*
X151176118Y-115000000D01*
X151223738Y-114857142D01*
X151318976Y-114761904D01*
X151414214Y-114714285D01*
X151604690Y-114666666D01*
X151747547Y-114666666D01*
X151938023Y-114714285D01*
X152033261Y-114761904D01*
X152128499Y-114857142D01*
X152176118Y-115000000D01*
X152176118Y-115095238D01*
X152128499Y-115238095D01*
X152080880Y-115285714D01*
X151747547Y-115285714D01*
X151747547Y-115095238D01*
X152176118Y-115714285D02*
X151176118Y-115714285D01*
X152176118Y-116285714D01*
X151176118Y-116285714D01*
X152176118Y-116761904D02*
X151176118Y-116761904D01*
X151176118Y-117000000D01*
X151223738Y-117142857D01*
X151318976Y-117238095D01*
X151414214Y-117285714D01*
X151604690Y-117333333D01*
X151747547Y-117333333D01*
X151938023Y-117285714D01*
X152033261Y-117238095D01*
X152128499Y-117142857D01*
X152176118Y-117000000D01*
X152176118Y-116761904D01*
X160438023Y-121652380D02*
X160438023Y-120652380D01*
X160438023Y-121128571D02*
X159866595Y-121128571D01*
X159866595Y-121652380D02*
X159866595Y-120652380D01*
X159533261Y-120652380D02*
X159199928Y-121652380D01*
X158866595Y-120652380D01*
D12*
%TO.C,U1*%
X158498700Y-122765000D02*
X158498700Y-109435000D01*
X142448700Y-109435000D02*
X142448700Y-122765000D01*
X158498700Y-109435000D02*
X142448700Y-109435000D01*
X142448700Y-122765000D02*
X158498700Y-122765000D01*
D13*
%TO.C,U2*%
X121555000Y-99503000D02*
X165370000Y-99503000D01*
X121555000Y-76770000D02*
X165370000Y-76770000D01*
X165370000Y-96963000D02*
X165370000Y-99503000D01*
X119650000Y-76770000D02*
X121555000Y-76770000D01*
X119650000Y-96963000D02*
X119650000Y-99503000D01*
X165370000Y-74230000D02*
X165370000Y-76770000D01*
X119650000Y-96963000D02*
X165370000Y-96963000D01*
X119650000Y-74230000D02*
X165370000Y-74230000D01*
X119650000Y-74230000D02*
X119650000Y-76770000D01*
X119650000Y-99503000D02*
X121555000Y-99503000D01*
D14*
%TO.C,J7*%
X122710800Y-85168900D02*
X158330800Y-85168900D01*
X121440800Y-85168900D02*
X120110800Y-85168900D01*
X120110800Y-85168900D02*
X120110800Y-86498900D01*
X158330800Y-85168900D02*
X158330800Y-87828900D01*
X122710800Y-85168900D02*
X122710800Y-87828900D01*
X122710800Y-87828900D02*
X158330800Y-87828900D01*
%TO.C,J4*%
X158330800Y-100169800D02*
X158330800Y-102829800D01*
X121440800Y-100169800D02*
X120110800Y-100169800D01*
X122710800Y-100169800D02*
X158330800Y-100169800D01*
X120110800Y-100169800D02*
X120110800Y-101499800D01*
X122710800Y-102829800D02*
X158330800Y-102829800D01*
X122710800Y-100169800D02*
X122710800Y-102829800D01*
%TD*%
M02*
